<?xml version="1.0" encoding="UTF-8"?>
<svg version="1.1" xmlns="http://www.w3.org/2000/svg" width="1762" height="336">
<path d="M0 0 C581.46 0 1162.92 0 1762 0 C1762 110.88 1762 221.76 1762 336 C1180.54 336 599.08 336 0 336 C0 225.12 0 114.24 0 0 Z " fill="#F1F3F8" transform="translate(0,0)"/>
<path d="M0 0 C0.65240662 -0.00511093 1.30481323 -0.01022186 1.97698975 -0.01548767 C4.14385057 -0.02943391 6.31039439 -0.02842082 8.47729492 -0.02612305 C9.99029152 -0.03001209 11.50328703 -0.03434719 13.01628113 -0.03910828 C16.19822713 -0.04658476 19.38006229 -0.04627247 22.56201172 -0.04101562 C26.60543238 -0.0352707 30.64838751 -0.05202269 34.69173145 -0.0753603 C37.82423992 -0.09023788 40.95664053 -0.09094963 44.08917809 -0.08785057 C45.57725623 -0.0883585 47.06534128 -0.0934951 48.55338478 -0.10366249 C62.05975281 -0.18449834 75.25396351 0.52753866 85.57885742 10.05981445 C95.75079509 20.69699667 94.79569037 34.84212313 94.79052734 48.68798828 C94.79388596 49.99505234 94.79724457 51.30211639 94.80070496 52.64878845 C94.80947236 56.20681168 94.81187997 59.7648108 94.81252074 63.32284379 C94.81323532 65.55322594 94.81537728 67.78360212 94.81801796 70.01398277 C94.82724696 77.81612914 94.83135587 85.61825851 94.83056641 93.42041016 C94.82996609 100.65945779 94.84051518 107.89843081 94.85631007 115.13745958 C94.86944201 121.38155297 94.87474795 127.62562214 94.874111 133.86972922 C94.87385769 137.5862378 94.87661537 141.30267993 94.88728905 145.01917458 C94.8988883 149.17054874 94.89418881 153.32175846 94.88818359 157.47314453 C94.8938031 158.68239594 94.89942261 159.89164734 94.9052124 161.13754272 C94.86007335 173.48900614 94.45414607 186.70764394 85.78588867 196.34106445 C77.88144931 203.67871262 69.83564848 205.3975271 59.18701172 205.40405273 C58.46597763 205.40580505 57.74494354 205.40755737 57.00205994 205.40936279 C54.63700908 205.41373727 52.27203393 205.41086048 49.90698242 205.4074707 C48.25885504 205.40814464 46.61072775 205.40911541 44.96260071 205.41036987 C41.51884001 205.41184055 38.07510533 205.40971116 34.63134766 205.4050293 C30.20812016 205.39930991 25.78495304 205.40262889 21.36172771 205.40860176 C17.96380656 205.41220528 14.56589987 205.41107015 11.16797829 205.40847397 C9.53601894 205.40780528 7.90405828 205.40863112 6.27210045 205.41095352 C4.00021217 205.41347903 1.72842376 205.40964197 -0.54345703 205.40405273 C-2.48488335 205.40285934 -2.48488335 205.40285934 -4.4655304 205.40164185 C-7.35473633 205.2746582 -7.35473633 205.2746582 -8.35473633 204.2746582 C-8.45696342 201.67423181 -8.493602 199.100214 -8.4884491 196.49916077 C-8.49071465 195.6748399 -8.49298021 194.85051903 -8.49531442 194.00121874 C-8.50168411 191.21743267 -8.50082317 188.43369492 -8.5 185.64990234 C-8.50298964 183.66287675 -8.50639171 181.67585175 -8.51017761 179.68882751 C-8.51904156 174.27569884 -8.52135672 168.86258596 -8.5219934 163.44945073 C-8.52294046 158.93871658 -8.52661639 154.42798616 -8.53016549 149.91725343 C-8.5383191 139.27995742 -8.5407489 128.64266987 -8.54003906 118.00537109 C-8.53943798 107.01328107 -8.54999385 96.02124008 -8.56578273 85.02916247 C-8.57883502 75.60837988 -8.58422394 66.18761337 -8.58358365 56.7668218 C-8.58332799 51.13290686 -8.58621662 45.49903545 -8.5967617 39.86512947 C-8.60640395 34.56861604 -8.60654865 29.27218812 -8.59924507 23.97567177 C-8.59819439 22.02692796 -8.6005905 20.07817893 -8.60660553 18.12944412 C-8.61426056 15.47857346 -8.60972414 12.82800294 -8.60197449 10.17713928 C-8.60711805 9.39767553 -8.61226161 8.61821178 -8.61756104 7.81512791 C-8.57123911 0.69366975 -6.8188271 0.0265767 0 0 Z " fill="#010101" transform="translate(306.354736328125,65.725341796875)"/>
<path d="M0 0 C2.29496327 -0.0097203 4.58903388 -0.04085751 6.88378906 -0.07226562 C20.03833704 -0.16676694 32.78339339 0.71841074 42.86425781 10.02539062 C52.82296032 20.43958472 52.08094004 34.04698125 52.07592773 47.63183594 C52.07928635 48.94850754 52.08264496 50.26517914 52.08610535 51.62174988 C52.09488447 55.21082302 52.09728089 58.79987227 52.09792113 62.38895512 C52.09863516 64.63826046 52.10077614 66.88755985 52.10341835 69.13686371 C52.11265201 77.003844 52.11675577 84.87080743 52.1159668 92.73779297 C52.11536671 100.03873556 52.12591003 107.3396041 52.14171046 114.64052796 C52.15484218 120.93555616 52.16014833 127.23056033 52.15951139 133.5256021 C52.15925803 137.27342448 52.16201865 141.02118098 52.17268944 144.76898956 C52.18246571 148.29852635 52.18238534 151.82793555 52.17517281 155.35747719 C52.17365098 157.24784092 52.18190681 159.1382049 52.19061279 161.02854919 C52.14577336 173.40342448 51.75818264 186.65250889 43.07128906 196.30664062 C34.35264259 204.40011283 25.19886261 205.39125582 13.70410156 205.44335938 C12.72003326 205.44905945 11.73596497 205.45475952 10.72207642 205.46063232 C8.64269069 205.47005518 6.56329021 205.47660548 4.48388672 205.48046875 C1.33696701 205.49013819 -1.80928898 205.52117302 -4.95605469 205.55273438 C-31.37579339 205.69184227 -31.37579339 205.69184227 -40.06933594 198.24023438 C-42.22283666 196.01229166 -44.17774805 193.6931243 -46.06933594 191.24023438 C-46.64683594 190.49773437 -47.22433594 189.75523437 -47.81933594 188.99023438 C-51.76728221 180.30475257 -51.36198411 170.32128463 -51.34399414 160.97900391 C-51.34835191 159.57977021 -51.35353857 158.18053889 -51.35948181 156.78131104 C-51.37276851 153.01258736 -51.37346212 149.24396461 -51.37091851 145.47522211 C-51.36984175 142.31454995 -51.37475005 139.15389762 -51.37952393 135.99322975 C-51.39058337 128.52916253 -51.39107666 121.06514565 -51.38500977 113.60107422 C-51.37897243 105.93309713 -51.39128306 98.26530365 -51.41257983 90.59735787 C-51.43026422 83.98381235 -51.43618648 77.37032492 -51.43294209 70.75675666 C-51.43113998 66.82002692 -51.43365718 62.88342818 -51.44765663 58.94672012 C-51.46034243 55.24145587 -51.45819082 51.5364754 -51.44524574 47.8312149 C-51.44179829 45.84544618 -51.45297806 43.85966833 -51.46481323 41.87393188 C-51.39643464 30.04311072 -50.20801085 18.39384992 -42.06933594 9.24023438 C-30.9591004 -1.3637794 -14.26021212 0.03639357 0 0 Z " fill="#010101" transform="translate(1668.0693359375,65.759765625)"/>
<path d="M0 0 C2.16092538 -0.00219037 4.32134174 -0.0204315 6.48217773 -0.03930664 C20.429678 -0.09723967 34.02423736 0.55824994 44.66772461 10.62280273 C54.10925593 20.24991698 53.03108773 35.5673437 52.98901367 48.11279297 C52.99251831 49.42698212 52.99602295 50.74117126 52.99963379 52.09518433 C53.00864263 55.65520491 53.0052616 59.21510776 52.99887562 62.77513003 C52.99375415 66.53035178 52.99852402 70.28556453 53.00164795 74.04078674 C53.00527035 80.34394103 53.00053459 86.64704821 52.9909668 92.95019531 C52.98009033 100.19838251 52.98360895 107.44645707 52.99461961 114.69464153 C53.00374768 120.95838575 53.00495085 127.22209641 52.99974227 133.48584515 C52.99665208 137.20905686 52.99613055 140.93221596 53.00281525 144.65542412 C53.00976074 148.81315459 53.00008659 152.9706964 52.98901367 157.12841797 C52.99306213 158.33354538 52.9971106 159.53867279 53.00128174 160.78031921 C52.93152912 175.04248847 52.49531303 187.04393526 42.18334961 197.79858398 C34.16892757 205.10204923 24.5241579 205.34476407 14.32006836 205.42358398 C13.31617569 205.43165573 12.31228302 205.43972748 11.27796936 205.44804382 C9.15570784 205.46184138 7.03342453 205.47258278 4.91113281 205.48046875 C2.76132611 205.49195812 0.61154725 205.51236127 -1.53808594 205.54199219 C-29.38648992 205.92529586 -29.38648992 205.92529586 -39.76977539 198.06030273 C-49.8206849 188.05180212 -50.47091411 174.28940502 -50.55194092 160.82766724 C-50.5494635 159.58572601 -50.54698608 158.34378479 -50.54443359 157.06420898 C-50.54879457 155.70408858 -50.55398226 154.34397063 -50.55992126 152.9838562 C-50.57317077 149.33094878 -50.57390605 145.67814568 -50.57135797 142.02521896 C-50.57027906 138.95888871 -50.57519466 135.89257878 -50.57996339 132.82625294 C-50.59100902 125.58556878 -50.59152338 118.34493653 -50.58544922 111.10424805 C-50.57940735 103.66912234 -50.59173721 96.23418576 -50.61301929 88.79909229 C-50.63070577 82.38083357 -50.63662577 75.96263469 -50.63338155 69.54435253 C-50.63158044 65.72614061 -50.63408669 61.90806379 -50.64809608 58.08987427 C-50.66078622 54.49784759 -50.65862636 50.90611356 -50.6456852 47.31409073 C-50.64224021 45.39036526 -50.653413 43.46663035 -50.66525269 41.54293823 C-50.58223749 27.61223764 -48.44513485 17.36066219 -38.51977539 7.43530273 C-26.8469129 -0.64590976 -13.66356815 -0.00154548 0 0 Z " fill="#010101" transform="translate(220.269775390625,65.814697265625)"/>
<path d="M0 0 C2.37836321 -0.00973442 4.75587034 -0.04087397 7.1340332 -0.07226562 C20.29076194 -0.16367642 32.04884066 0.97893904 42.35083008 9.88476562 C50.26552764 17.83292914 51.89093883 28.70849756 51.97862244 39.52902222 C51.96738846 40.7305191 51.95615448 41.93201599 51.94458008 43.16992188 C51.94603531 44.44449249 51.94749054 45.71906311 51.94898987 47.03225708 C51.94734169 49.70339172 51.93804946 52.37305721 51.91503906 55.04394531 C51.88648309 58.44988476 51.88945719 61.85493121 51.90212917 65.26093864 C51.91078198 68.54315662 51.89563962 71.82523177 51.88208008 75.10742188 C51.88501572 76.32106415 51.88795135 77.53470642 51.89097595 78.78512573 C51.8033694 86.65010083 51.32949574 91.99909878 45.94848633 98.05273438 C41.16277204 102.24023438 41.16277204 102.24023438 37.44848633 102.24023438 C37.44848633 102.90023437 37.44848633 103.56023437 37.44848633 104.24023438 C38.50036133 104.33304688 38.50036133 104.33304688 39.57348633 104.42773438 C44.3790372 105.78582484 47.2805462 108.52186055 50.01293945 112.54199219 C52.13901296 118.0191625 51.87648173 123.23076846 51.84692383 129.05664062 C51.84979401 130.30468979 51.85266418 131.55273895 51.85562134 132.83860779 C51.85766088 135.47906805 51.85365851 138.11869269 51.83959961 140.7590332 C51.8259915 143.44250446 51.82582855 146.12536756 51.83959961 148.80883789 C51.85830963 152.70411965 51.85583418 156.59883326 51.84692383 160.49414062 C51.85299652 161.67690079 51.85906921 162.85966095 51.86532593 164.07826233 C51.75058049 177.92146224 49.29392071 188.72695274 39.88598633 199.05273438 C29.23202257 206.85816114 15.11590036 205.86055996 2.61914062 205.76171875 C-0.61103184 205.74025419 -3.83898635 205.76161177 -7.0690918 205.78710938 C-32.90754465 205.82372998 -32.90754465 205.82372998 -42.93823242 196.02148438 C-52.27649152 185.71096102 -52.70251112 173.2587929 -52.78979492 160.02539062 C-52.79786667 158.85568222 -52.80593842 157.68597382 -52.81425476 156.4808197 C-52.82804414 154.01400209 -52.83878914 151.5471658 -52.84667969 149.08032227 C-52.85822772 146.56366364 -52.87872356 144.04703004 -52.90820312 141.53051758 C-52.95089849 137.88280697 -52.96704877 134.23582013 -52.97729492 130.58789062 C-52.99480301 129.46995621 -53.0123111 128.35202179 -53.03034973 127.20021057 C-53.00906432 119.50313521 -51.92200996 114.12536558 -46.73510742 108.14648438 C-45.87079102 107.45039063 -45.87079102 107.45039063 -44.98901367 106.74023438 C-44.41022461 106.25554687 -43.83143555 105.77085937 -43.23510742 105.27148438 C-41.55151367 104.24023438 -41.55151367 104.24023438 -38.55151367 104.24023438 C-38.55151367 103.58023438 -38.55151367 102.92023438 -38.55151367 102.24023438 C-39.85088867 101.96179688 -39.85088867 101.96179688 -41.17651367 101.67773438 C-45.53464105 99.82149494 -48.10626542 97.28373224 -50.55151367 93.24023438 C-52.86677684 86.95238319 -52.84187313 81.00096458 -52.81713867 74.34960938 C-52.81905212 73.20921204 -52.82096558 72.0688147 -52.82293701 70.89385986 C-52.82429451 68.48669209 -52.82062857 66.07951688 -52.81225586 63.67236328 C-52.8015901 60.0164311 -52.81214586 56.36099472 -52.82495117 52.70507812 C-52.82362873 50.3574208 -52.82106458 48.00976379 -52.81713867 45.66210938 C-52.82118713 44.58153259 -52.8252356 43.50095581 -52.82940674 42.38763428 C-52.74994837 29.30898943 -50.98678573 17.88994443 -41.55151367 8.24023438 C-29.47842943 -0.95466734 -14.46919049 0.03571537 0 0 Z " fill="#010101" transform="translate(1481.551513671875,65.759765625)"/>
<path d="M0 0 C0.87648193 0.00091644 1.75296387 0.00183289 2.65600586 0.0027771 C4.5086814 0.00881772 6.36134697 0.02457758 8.21386719 0.04931641 C11.05179781 0.08579992 13.88842199 0.09033597 16.7265625 0.08984375 C18.52605296 0.09967583 20.32553457 0.11133323 22.125 0.125 C22.97505615 0.12722565 23.8251123 0.12945129 24.70092773 0.13174438 C30.71422671 0.22875531 30.71422671 0.22875531 34.0625 2.4609375 C34.79300213 4.37441254 34.79300213 4.37441254 35.30265808 6.75915527 C35.50239542 7.66450988 35.70213276 8.56986448 35.90792274 9.50265408 C36.1151515 10.5014462 36.32238026 11.50023832 36.53588867 12.52929688 C36.76450781 13.58251412 36.99312695 14.63573137 37.22867393 15.7208643 C37.99089684 19.2464132 38.73558355 22.77543816 39.48046875 26.3046875 C40.01502233 28.79319716 40.55068299 31.28146925 41.08738708 33.76951599 C42.37678544 39.75986222 43.65513967 45.75247074 44.92828196 51.74629003 C46.3909464 58.63002308 47.86577997 65.51112828 49.34199905 72.39196527 C50.07953704 75.82975841 50.81666373 79.26763968 51.5536499 82.70555115 C51.69924394 83.38470788 51.84483798 84.0638646 51.99484396 84.76360184 C53.02398975 89.56569683 54.05044794 94.36836176 55.07574463 99.17127991 C58.25818069 114.07616741 61.46796269 128.97454678 64.74133492 143.85976791 C65.32815377 146.52886042 65.91369808 149.19822906 66.49876404 151.8677063 C66.86806861 153.55243005 67.23737699 155.23715297 67.60668945 156.921875 C67.78279094 157.72525236 67.95889242 158.52862972 68.14033031 159.35635185 C68.99204764 163.23901777 69.84689105 167.12094647 70.70834351 171.00146484 C71.4975809 174.55730137 72.27824479 178.11491023 73.05226326 181.67408943 C73.45730135 183.52525126 73.87190021 185.37431345 74.28697205 187.22325134 C74.524366 188.32125565 74.76175995 189.41925995 75.00634766 190.55053711 C75.31507309 191.94954506 75.31507309 191.94954506 75.6300354 193.3768158 C76.18974481 197.36838401 76.0625 201.43031826 76.0625 205.4609375 C64.8425 205.4609375 53.6225 205.4609375 42.0625 205.4609375 C38.68975451 196.46694952 38.68975451 196.46694952 37.9296875 191.5 C37.68025391 189.92798828 37.68025391 189.92798828 37.42578125 188.32421875 C37.26464844 187.25558594 37.10351562 186.18695313 36.9375 185.0859375 C36.60434277 182.93185982 36.26854127 180.77818891 35.9296875 178.625 C35.78644043 177.68092285 35.64319336 176.7368457 35.49560547 175.76416016 C35.16830841 173.44404055 35.16830841 173.44404055 34.0625 171.4609375 C34.0625 169.4809375 34.0625 167.5009375 34.0625 165.4609375 C19.2125 165.4609375 4.3625 165.4609375 -10.9375 165.4609375 C-12.45407582 174.50836798 -12.45407582 174.50836798 -13.95825195 183.55786133 C-15.22306117 190.99714914 -16.76832889 198.23130986 -18.9375 205.4609375 C-23.76130802 205.4855894 -28.58507967 205.50377443 -33.40893555 205.51586914 C-35.05119464 205.52090924 -36.69344923 205.52774128 -38.33569336 205.53637695 C-40.69125479 205.54845676 -43.04675709 205.55416889 -45.40234375 205.55859375 C-46.14089096 205.56375504 -46.87943817 205.56891632 -47.6403656 205.57423401 C-49.40648088 205.57443 -51.17247146 205.52288469 -52.9375 205.4609375 C-53.9375 204.4609375 -53.9375 204.4609375 -54.0625 201.4609375 C-53.9375 198.4609375 -53.9375 198.4609375 -52.9375 197.4609375 C-52.45902757 195.00457586 -52.02900397 192.5547899 -51.625 190.0859375 C-50.47952205 183.34988672 -49.20878673 176.64959104 -47.8125 169.9609375 C-47.64194092 169.13029785 -47.47138184 168.2996582 -47.2956543 167.44384766 C-46.05873662 161.58217412 -46.05873662 161.58217412 -44.9375 160.4609375 C-44.56581518 158.3005195 -44.23958609 156.13218128 -43.9375 153.9609375 C-43.04861111 147.57204861 -43.04861111 147.57204861 -41.9375 146.4609375 C-41.27660927 142.97521094 -40.69516005 139.48466895 -40.13085938 135.98242188 C-39.40192562 131.62770363 -38.36080423 127.65114516 -36.9375 123.4609375 C-36.50167127 121.1974399 -36.11124824 118.92502876 -35.75 116.6484375 C-34.33003428 108.13263744 -32.57797825 99.68959968 -30.79452515 91.24404907 C-30.47280884 89.72024017 -30.15251965 88.19612927 -29.83364868 86.67172241 C-29.38018745 84.50681734 -28.92145041 82.34310219 -28.4609375 80.1796875 C-28.19200684 78.91060547 -27.92307617 77.64152344 -27.64599609 76.33398438 C-26.9375 73.4609375 -26.9375 73.4609375 -25.9375 72.4609375 C-25.5246037 70.30117222 -25.16110669 68.13200701 -24.8125 65.9609375 C-23.36590768 57.34010857 -21.59953416 48.79022795 -19.79351807 40.23901367 C-19.47221594 38.71734378 -19.15235632 37.1953686 -18.83392334 35.6730957 C-18.38036775 33.50773352 -17.92153879 31.34356058 -17.4609375 29.1796875 C-17.19200684 27.91060547 -16.92307617 26.64152344 -16.64599609 25.33398438 C-15.9375 22.4609375 -15.9375 22.4609375 -14.9375 21.4609375 C-14.31206317 17.91553956 -13.74158066 14.36842451 -13.21875 10.80664062 C-13.03699219 9.68225586 -13.03699219 9.68225586 -12.8515625 8.53515625 C-12.6961499 7.50781372 -12.6961499 7.50781372 -12.53759766 6.4597168 C-10.49472478 -0.34459574 -6.42368123 -0.10859863 0 0 Z " fill="#020202" transform="translate(1266.9375,65.5390625)"/>
<path d="M0 0 C0.85521744 0.00404846 1.71043488 0.00809692 2.59156799 0.01226807 C3.46946487 0.01035461 4.34736176 0.00844116 5.25186157 0.00646973 C7.11046128 0.00510741 8.96907049 0.00880708 10.82765198 0.01715088 C13.67430513 0.02783706 16.52032535 0.01726382 19.36695862 0.00445557 C21.17099647 0.0057774 22.97503393 0.0083403 24.77906799 0.01226807 C25.6322612 0.0082196 26.48545441 0.00417114 27.36450195 0 C33.40683497 0.04796688 33.40683497 0.04796688 36.75172424 2.27789307 C37.51663208 4.4209137 37.51663208 4.4209137 38.07032776 7.10723877 C38.28387405 8.1120076 38.49742035 9.11677643 38.71743774 10.1519928 C39.04571815 11.78632515 39.04571815 11.78632515 39.38063049 13.45367432 C39.6157988 14.57098434 39.8509671 15.68829437 40.09326172 16.83946228 C40.84518786 20.42079846 41.58049814 24.00528781 42.31422424 27.59039307 C43.05416434 31.16416676 43.79759982 34.73715591 44.54589844 38.30918884 C45.01106459 40.53397176 45.47094528 42.75986782 45.92495728 44.98695374 C46.13535141 46.00117905 46.34574554 47.01540436 46.56251526 48.06036377 C46.74443924 48.94923782 46.92636322 49.83811188 47.11380005 50.75392151 C47.77788019 53.38138006 48.74246296 55.76621939 49.75172424 58.27789307 C50.23908875 60.98797781 50.67222554 63.6795803 51.06422424 66.40289307 C52.21009999 73.85530101 53.8579579 81.04908407 55.95021057 88.29205322 C57.12277499 92.45324391 57.96703561 96.5298165 58.5537262 100.8147583 C59.81521499 109.18453348 61.65106122 117.41363696 63.48190689 125.67453766 C64.11676231 128.54188087 64.74553436 131.41049903 65.37266541 134.27954102 C67.15428408 142.42676757 68.94390867 150.5722081 70.74391174 158.71539307 C71.84998557 163.72125998 72.94688497 168.72906563 74.03814316 173.73818207 C74.45328206 175.63503934 74.87189027 177.53114098 75.29413223 179.42642975 C75.8844773 182.07725912 76.46311095 184.7304062 77.0393219 187.38433838 C77.21384384 188.1544223 77.38836578 188.92450623 77.56817627 189.71792603 C78.6970767 194.99665357 78.8982209 199.87911335 78.75172424 205.27789307 C74.10701215 205.37677337 69.46291251 205.44936457 64.81739807 205.49761963 C63.23721139 205.51773493 61.65709915 205.5450311 60.0771637 205.57965088 C57.80573676 205.62817649 55.53529366 205.65086116 53.26344299 205.66851807 C52.2039167 205.69948578 52.2039167 205.69948578 51.12298584 205.7310791 C47.88610402 205.7325598 46.20991688 205.71719475 43.82130432 203.42706299 C42.46908508 200.70996963 42.10933375 198.3539982 41.75172424 195.34039307 C40.98849264 189.62577658 39.84679754 184.13092933 38.43531799 178.54351807 C37.58976525 174.50419181 37.2074616 170.37952927 36.75172424 166.27789307 C14.47672424 165.78289307 14.47672424 165.78289307 -8.24827576 165.27789307 C-8.74327576 169.23789307 -8.74327576 169.23789307 -9.24827576 173.27789307 C-9.90586666 177.56158569 -10.62287687 181.83435159 -11.3500824 186.10675049 C-11.57530153 187.43759079 -11.79726761 188.7689854 -12.01609802 190.10089111 C-12.33515779 192.04257056 -12.66461754 193.98253209 -12.99436951 195.92242432 C-13.18700378 197.0707373 -13.37963806 198.21905029 -13.57810974 199.40216064 C-14.24827576 202.27789307 -14.24827576 202.27789307 -16.24827576 205.27789307 C-18.87289819 205.54487194 -21.25893508 205.6262229 -23.88108826 205.57086182 C-25.00884171 205.56449455 -25.00884171 205.56449455 -26.15937805 205.55799866 C-28.56437261 205.54118477 -30.96853385 205.50352931 -33.37327576 205.46539307 C-35.00216992 205.45034965 -36.63107719 205.43666065 -38.25999451 205.42437744 C-42.2564101 205.39127261 -46.25220158 205.33947316 -50.24827576 205.27789307 C-50.37922538 196.78957133 -50.37922538 196.78957133 -49.33030701 192.78179932 C-46.93551528 183.50846755 -44.78090658 174.22794365 -42.95921326 164.82476807 C-41.14288104 155.60219551 -39.22289043 146.40774701 -37.20530701 137.22711182 C-36.94782181 136.05539932 -36.69033661 134.88368683 -36.42504883 133.6764679 C-35.37011248 128.88646611 -34.31128468 124.09733067 -33.25144958 119.30841064 C-32.46268261 115.74020185 -31.67760556 112.17119519 -30.89280701 108.60211182 C-30.6563295 107.53941574 -30.41985199 106.47671967 -30.1762085 105.38182068 C-28.83869377 99.29298162 -27.68787913 93.20578568 -26.72364807 87.04640198 C-25.84009207 81.90068233 -24.54441759 76.84876642 -23.31077576 71.77789307 C-20.8466538 61.49298017 -18.57139986 51.1782243 -16.41233826 40.82476807 C-16.16718979 39.65131836 -15.92204132 38.47786865 -15.66946411 37.26885986 C-14.42926484 31.32284708 -13.19949864 25.37486174 -11.98094177 19.42437744 C-11.52210774 17.21404287 -11.06305189 15.00375433 -10.60374451 12.79351807 C-10.29160507 11.24552521 -10.29160507 11.24552521 -9.97315979 9.66625977 C-9.77543976 8.7211554 -9.57771973 7.77605103 -9.37400818 6.80230713 C-9.20414902 5.97346008 -9.03428986 5.14461304 -8.85928345 4.29064941 C-7.41131339 -0.47919385 -4.4074739 0.03512803 0 0 Z " fill="#020202" transform="translate(975.2482757568359,65.72210693359375)"/>
<path d="M0 0 C0.98178223 -0.00218285 0.98178223 -0.00218285 1.98339844 -0.00440979 C3.36527972 -0.00275204 4.7471797 0.00879582 6.12890625 0.02954102 C8.24298592 0.05849768 10.35455736 0.05015083 12.46875 0.03710938 C13.81251218 0.04334718 15.15626644 0.05173847 16.5 0.0625 C17.72203125 0.07224854 18.9440625 0.08199707 20.203125 0.09204102 C23.25 0.49609375 23.25 0.49609375 24.91635036 1.6212635 C26.87649697 4.37681642 26.62949555 6.53706377 26.63526917 9.89743042 C26.64312271 10.87603615 26.64312271 10.87603615 26.65113491 11.8744117 C26.66512532 14.06473631 26.65778798 16.25447414 26.65063477 18.44482422 C26.65637574 20.0134941 26.66345788 21.58215957 26.67178345 23.15081787 C26.68691279 26.53118863 26.69266943 29.9114013 26.69125557 33.29180527 C26.6892248 38.63669389 26.70876959 43.98136945 26.73143005 49.32620239 C26.77244328 59.70912157 26.79101674 70.09202414 26.80760193 80.4750061 C26.82994223 93.68417699 26.86348602 106.89329882 26.91480106 120.10238945 C26.93472915 125.41564204 26.94430316 130.72878355 26.94575322 136.04207206 C26.94850391 139.34847852 26.95933504 142.65482372 26.97226334 145.96120453 C26.97654257 147.49425565 26.97740331 149.02732071 26.97458839 150.56037521 C26.97118533 152.65398825 26.97997522 154.74721483 26.99171448 156.84078979 C26.99334878 158.01217939 26.99498308 159.18356899 26.99666691 160.39045525 C27.25421535 163.54777025 27.76959168 165.70421566 29.25 168.49609375 C33.61038795 171.40301905 37.55948776 170.82583656 42.6875 170.80859375 C43.64205078 170.82470703 44.59660156 170.84082031 45.58007812 170.85742188 C46.50111328 170.85806641 47.42214844 170.85871094 48.37109375 170.859375 C49.63070923 170.86384644 49.63070923 170.86384644 50.91577148 170.8684082 C53.82147414 170.4049424 55.15900247 169.55107466 57.25 167.49609375 C58.47796768 164.02490825 58.38006603 160.61404944 58.38803101 156.96104431 C58.39226293 155.97904024 58.39226293 155.97904024 58.39658034 154.97719771 C58.4049075 152.7854863 58.40626294 150.59382553 58.40771484 148.40209961 C58.41238427 146.83004108 58.41752805 145.2579839 58.42311096 143.68592834 C58.43438202 140.30179407 58.44282081 136.91766856 58.44923019 133.53352165 C58.45991202 128.18495783 58.48015557 122.8364572 58.50234985 117.4879303 C58.56427382 102.27933635 58.6183417 87.07074675 58.65136719 71.86206055 C58.66968866 63.46162907 58.69858906 55.06130401 58.7393719 46.66095072 C58.76047542 42.21473015 58.77590396 37.76864384 58.77817917 33.32237053 C58.78032016 29.14361668 58.79613285 24.96514287 58.82256889 20.78647423 C58.8297831 19.25097954 58.83185263 17.71545099 58.82846642 16.17994308 C58.82458853 14.08768076 58.83896956 11.99632033 58.85800171 9.90415955 C58.86131186 8.73222518 58.864622 7.56029081 58.86803246 6.35284328 C59.25 3.49609375 59.25 3.49609375 60.59653664 1.62084293 C64.74083042 -1.19826461 71.37153929 0.03217202 76.1875 0.05859375 C78.12012695 0.02862305 78.12012695 0.02862305 80.09179688 -0.00195312 C81.32865234 -0.00130859 82.56550781 -0.00066406 83.83984375 0 C84.97284912 -0.00185303 86.10585449 -0.00370605 87.27319336 -0.00561523 C91.00178631 0.62279931 91.9572585 1.52474657 94.25 4.49609375 C94.75057125 7.57289696 94.75057125 7.57289696 94.75120544 11.26083374 C94.75950704 12.2801986 94.75950704 12.2801986 94.76797634 13.32015669 C94.78158784 15.59711079 94.76661153 17.87296954 94.75170898 20.14990234 C94.75549236 21.7829332 94.76099256 23.41596086 94.76808167 25.04898071 C94.78206224 29.48769484 94.77084341 33.92602237 94.75437045 38.3647151 C94.74051364 43.01866931 94.74698165 47.6726012 94.75050354 52.3265686 C94.75320785 60.15315971 94.73972031 67.97959769 94.71655273 75.80615234 C94.69003448 84.82646582 94.68816546 93.84652174 94.6999411 102.86686075 C94.71076886 111.56360343 94.70448678 120.26025388 94.69038582 128.95698929 C94.6846598 132.64642163 94.68468209 136.33578572 94.68945122 140.02521896 C94.69426758 144.38702826 94.68392908 148.74856049 94.66249657 153.11031723 C94.65698788 154.70086228 94.65640804 156.29143429 94.66144943 157.8819809 C94.69858338 171.29234877 94.31772745 185.74549112 85.25 196.49609375 C76.69042771 204.21938599 66.34325784 205.96499199 55.16015625 205.89453125 C53.62239784 205.89883652 53.62239784 205.89883652 52.05357361 205.90322876 C49.89972374 205.9052573 47.74585495 205.89981283 45.59204102 205.88720703 C42.32460654 205.87115323 39.05841196 205.88708927 35.79101562 205.90625 C33.68489314 205.90426703 31.57877143 205.90042225 29.47265625 205.89453125 C28.51085953 205.90060394 27.54906281 205.90667664 26.55812073 205.91293335 C16.8003216 205.81348771 7.83383776 204.10909216 0.2578125 197.6328125 C-10.60711595 186.07033028 -10.05086464 170.66432545 -10.0246582 155.77539062 C-10.02901448 154.12495698 -10.03420065 152.47452536 -10.04014587 150.82409668 C-10.05343789 146.37837636 -10.05412636 141.93274153 -10.05158257 137.48700523 C-10.05050776 133.76872218 -10.05540839 130.05045608 -10.060188 126.33217669 C-10.07124576 117.56583907 -10.07173941 108.79954433 -10.06567383 100.03320312 C-10.05961466 90.99209132 -10.07200266 81.95113436 -10.0932439 72.91004896 C-10.11084052 65.13400262 -10.11686496 57.3580057 -10.11360615 49.58194017 C-10.11179259 44.94296575 -10.1144383 40.30410223 -10.12832069 35.66514587 C-10.1408655 31.31149701 -10.13898693 26.9580914 -10.12590981 22.60444641 C-10.12353845 21.00645873 -10.12629866 19.40845407 -10.13453293 17.81048584 C-10.14495365 15.63146996 -10.13693888 13.45327782 -10.1242218 11.27429199 C-10.12438954 10.05467522 -10.12455729 8.83505844 -10.12473011 7.57848358 C-9.30628833 0.84628739 -6.32552217 -0.00959171 0 0 Z " fill="#010101" transform="translate(562.75,65.50390625)"/>
<path d="M0 0 C2.12553043 0.01079074 4.25022608 -0.000013 6.37573242 -0.01269531 C18.6990675 -0.02678718 29.66200032 0.81280293 40.4284668 7.26074219 C41.7897168 8.06511719 41.7897168 8.06511719 43.1784668 8.88574219 C53.91770837 20.2216083 52.61538103 34.58734522 52.61376953 49.15527344 C52.61599776 51.41717252 52.63434931 53.67861376 52.65307617 55.94042969 C52.65600359 57.38313637 52.65799274 58.82584534 52.65893555 60.26855469 C52.66304443 61.56422363 52.66715332 62.85989258 52.67138672 64.19482422 C52.4284668 67.26074219 52.4284668 67.26074219 50.4284668 69.26074219 C47.38745117 69.51953125 47.38745117 69.51953125 43.5222168 69.52636719 C42.50146057 69.52923737 42.50146057 69.52923737 41.46008301 69.53216553 C40.02099233 69.53352682 38.58188936 69.52983424 37.14282227 69.52148438 C34.93697593 69.51078347 32.73194398 69.52138091 30.52612305 69.53417969 C29.12898583 69.53285808 27.73184912 69.53029567 26.3347168 69.52636719 C25.05918945 69.52411133 23.78366211 69.52185547 22.46948242 69.51953125 C19.4284668 69.26074219 19.4284668 69.26074219 17.4284668 67.26074219 C17.14135742 64.80224609 17.14135742 64.80224609 17.0847168 61.73730469 C17.05506836 60.63386719 17.02541992 59.53042969 16.99487305 58.39355469 C16.97295898 57.23597656 16.95104492 56.07839844 16.9284668 54.88574219 C16.88503623 52.60691501 16.83329339 50.3282272 16.7722168 48.04980469 C16.74417969 46.5292749 16.74417969 46.5292749 16.71557617 44.97802734 C16.42187848 42.19838852 15.96232644 40.58015893 14.4284668 38.26074219 C11.20874397 36.1142603 10.35194442 36.01225846 6.6472168 36.03027344 C5.72295898 36.03220703 4.79870117 36.03414062 3.84643555 36.03613281 C2.88350586 36.04837891 1.92057617 36.060625 0.9284668 36.07324219 C-0.03446289 36.07388672 -0.99739258 36.07453125 -1.98950195 36.07519531 C-7.36685268 36.07275471 -7.36685268 36.07275471 -12.5715332 37.26074219 C-13.45718906 39.91770976 -13.7165594 41.54264302 -13.77685547 44.27319336 C-13.79680069 45.07379684 -13.81674591 45.87440033 -13.83729553 46.69926453 C-13.86236427 47.9884655 -13.86236427 47.9884655 -13.88793945 49.30371094 C-13.90872055 50.18730789 -13.92950165 51.07090485 -13.95091248 51.98127747 C-14.01629075 54.80352003 -14.07523848 57.62585553 -14.1340332 60.44824219 C-14.17722957 62.36166325 -14.22084422 64.27507492 -14.26489258 66.18847656 C-14.37196016 70.87913656 -14.47326072 75.56989002 -14.5715332 80.26074219 C-13.01305664 80.62425781 -13.01305664 80.62425781 -11.4230957 80.99511719 C-4.53281064 82.63694576 2.08774987 84.33577148 8.61303711 87.13134766 C12.40111209 88.65091364 16.25997314 89.90623696 20.1394043 91.17089844 C21.31191742 91.55488297 21.31191742 91.55488297 22.50811768 91.94662476 C25.7686477 93.01248278 29.03056718 94.07386354 32.29516602 95.12719727 C34.70381776 95.90590748 37.10924195 96.69398769 39.5144043 97.48339844 C40.24984467 97.71785172 40.98528503 97.95230499 41.74301147 98.19386292 C48.81351018 100.52729408 48.81351018 100.52729408 51.4284668 103.26074219 C52.41888415 106.99325167 52.55996485 110.54024977 52.57373047 114.3894043 C52.58011032 115.60514633 52.58649017 116.82088837 52.59306335 118.07347107 C52.59417618 119.38179398 52.595289 120.69011688 52.59643555 122.03808594 C52.59965456 123.40987685 52.6030191 124.78166743 52.60652161 126.15345764 C52.61250282 129.03077996 52.61436285 131.9080723 52.61376953 134.78540039 C52.61366866 138.432823 52.62724675 142.08004764 52.64454174 145.72742367 C52.65579206 148.56485331 52.6576847 151.40223733 52.65715981 154.23968697 C52.65888141 156.22563758 52.66964883 158.21157395 52.68070984 160.19749451 C52.6469033 173.8680056 52.34677046 186.50893288 42.7956543 197.06542969 C35.10147971 204.25858826 26.84615123 205.87078075 16.59643555 205.79199219 C14.92693596 205.79773254 14.92693596 205.79773254 13.22370911 205.80358887 C10.87976166 205.80629848 8.53578349 205.79900435 6.19189453 205.78222656 C2.63658901 205.76086609 -0.91668173 205.78203106 -4.47192383 205.80761719 C-6.76164177 205.80497256 -9.05135845 205.79984479 -11.34106445 205.79199219 C-12.38833206 205.80008911 -13.43559967 205.80818604 -14.51460266 205.81652832 C-24.60025087 205.69076096 -34.49062367 203.55089666 -41.88793945 196.29199219 C-51.14062837 185.12865521 -50.91478904 170.51525232 -50.83227539 156.71801758 C-50.82135332 154.53732728 -50.83234463 152.35742646 -50.8449707 150.17675781 C-50.84365225 148.78417788 -50.84109639 147.39159843 -50.8371582 145.99902344 C-50.83490234 144.75161377 -50.83264648 143.5042041 -50.83032227 142.21899414 C-50.5715332 139.26074219 -50.5715332 139.26074219 -48.5715332 137.26074219 C-45.54638672 137.00195312 -45.54638672 137.00195312 -41.70043945 136.99511719 C-41.02230698 136.99320374 -40.3441745 136.99129028 -39.64549255 136.98931885 C-38.21059804 136.98795738 -36.77569119 136.99165119 -35.34082031 137 C-33.14595778 137.01068414 -30.9519168 137.00011262 -28.75708008 136.98730469 C-27.36319806 136.98862661 -25.96931656 136.9911897 -24.57543945 136.99511719 C-23.30514893 136.99737305 -22.0348584 136.99962891 -20.72607422 137.00195312 C-17.5715332 137.26074219 -17.5715332 137.26074219 -14.5715332 139.26074219 C-14.20263672 141.79516602 -14.20263672 141.79516602 -14.20043945 144.96777344 C-14.17433594 146.68383789 -14.17433594 146.68383789 -14.14770508 148.43457031 C-14.13863457 150.84862139 -14.13338852 153.26269005 -14.13208008 155.67675781 C-14.10404297 157.39862305 -14.10404297 157.39862305 -14.07543945 159.15527344 C-14.07265991 160.73078979 -14.07265991 160.73078979 -14.06982422 162.33813477 C-13.43925089 166.03661264 -12.27879851 167.6887965 -9.5715332 170.26074219 C-7.24750765 171.00274806 -7.24750765 171.00274806 -4.7277832 170.88964844 C-3.81125977 170.89158203 -2.89473633 170.89351562 -1.95043945 170.89550781 C-1.00040039 170.87166016 -0.05036133 170.8478125 0.9284668 170.82324219 C2.35352539 170.83967773 2.35352539 170.83967773 3.80737305 170.85644531 C9.25171545 170.83124947 9.25171545 170.83124947 14.0222168 168.47558594 C16.83872096 164.03959188 16.56268018 159.55404026 16.52612305 154.43261719 C16.5247081 153.68361145 16.52329315 152.93460571 16.52183533 152.16290283 C16.51625339 149.77880807 16.50370425 147.3948084 16.4909668 145.01074219 C16.48594946 143.39095188 16.48138696 141.7711601 16.47729492 140.15136719 C16.46628987 136.18778907 16.44903771 132.22428174 16.4284668 128.26074219 C7.11936262 124.91294743 -2.17217209 121.57301511 -11.6965332 118.88574219 C-19.31223123 116.69592486 -26.86000219 114.30921922 -34.3840332 111.82324219 C-35.52437012 111.46375488 -36.66470703 111.10426758 -37.83959961 110.73388672 C-38.91258301 110.37278809 -39.98556641 110.01168945 -41.09106445 109.63964844 C-42.05117432 109.32584229 -43.01128418 109.01203613 -44.00048828 108.6887207 C-47.44691253 106.77454964 -48.64419637 104.68117483 -50.5715332 101.26074219 C-51.06600952 98.12780762 -51.06600952 98.12780762 -51.05737305 94.74316406 C-51.06352631 93.4674353 -51.06967957 92.19170654 -51.07601929 90.87731934 C-51.06220962 89.49470305 -51.04767463 88.11209385 -51.0324707 86.72949219 C-51.03008139 85.2918718 -51.02918199 83.85424825 -51.0296936 82.41662598 C-51.02657091 79.40385345 -51.01006235 76.39155851 -50.9831543 73.37890625 C-50.94942059 69.55770573 -50.94151941 65.73703478 -50.94304466 61.91570282 C-50.94249448 58.94355405 -50.93142123 55.97151622 -50.91704178 52.99940491 C-50.91076659 51.59311256 -50.90675719 50.18680787 -50.90525436 48.78050232 C-50.84071184 19.91960875 -50.84071184 19.91960875 -41.67700195 10.26464844 C-30.00059704 -0.47407195 -15.01329057 -0.09038915 0 0 Z " fill="#010101" transform="translate(849.571533203125,65.7392578125)"/>
<path d="M0 0 C0.91539047 0.00404846 1.83078094 0.00809692 2.77391052 0.01226807 C4.21793495 0.00701111 4.21793495 0.00701111 5.69113159 0.00164795 C8.88481277 -0.00718065 12.07827383 -0.0013162 15.2719574 0.00543213 C17.48391258 0.0040858 19.69586748 0.00214555 21.90782166 -0.00036621 C26.54827181 -0.00331901 31.18864507 0.00098518 35.8290863 0.01031494 C41.78814565 0.02170952 47.74702485 0.01515088 53.70607758 0.00317001 C58.27500271 -0.00404438 62.84388488 -0.00176259 67.41281128 0.0034256 C69.61053488 0.00476326 71.80826234 0.00311033 74.00598145 -0.00153351 C77.07326139 -0.00659181 80.14024639 0.00110174 83.20750427 0.01226807 C84.12289474 0.0082196 85.03828522 0.00417114 85.98141479 0 C92.26217998 0.04252971 92.26217998 0.04252971 94.4907074 2.27105713 C94.74949646 5.20440674 94.74949646 5.20440674 94.7563324 8.92340088 C94.75824585 9.57933731 94.7601593 10.23527374 94.76213074 10.91108704 C94.76349208 12.29890323 94.75979914 13.68673218 94.75144958 15.07452393 C94.74076574 17.19696774 94.751337 19.31856188 94.7641449 21.440979 C94.76282296 22.78928816 94.76025985 24.13759679 94.7563324 25.48590088 C94.75407654 26.71429688 94.75182068 27.94269287 94.74949646 29.20831299 C94.4907074 32.27105713 94.4907074 32.27105713 92.4907074 35.27105713 C89.74458313 35.63182068 89.74458313 35.63182068 86.20506287 35.6116333 C85.56103516 35.61207138 84.91700745 35.61250946 84.25346375 35.61296082 C82.12130075 35.61086807 79.98992077 35.58751578 77.8578949 35.56402588 C76.38102142 35.55843161 74.90414238 35.55416072 73.42726135 35.55116272 C69.53744677 35.53970048 65.64796749 35.51022186 61.75828552 35.47705078 C57.09275238 35.44098811 52.4271072 35.42719527 47.76147461 35.40969086 C40.67098557 35.38058486 33.58123244 35.32310829 26.4907074 35.27105713 C26.4907074 51.77105713 26.4907074 68.27105713 26.4907074 85.27105713 C42.85576333 85.19187432 42.85576333 85.19187432 59.22068787 85.09088135 C61.26642143 85.08504226 63.31215731 85.07994532 65.3578949 85.07574463 C66.42725281 85.0655127 67.49661072 85.05528076 68.59837341 85.04473877 C69.61326843 85.04449707 70.62816345 85.04425537 71.67381287 85.04400635 C72.55761627 85.03956512 73.44141968 85.0351239 74.352005 85.0305481 C76.4907074 85.27105713 76.4907074 85.27105713 78.4907074 87.27105713 C78.67784726 89.69672832 78.74656017 92.0060338 78.72117615 94.43121338 C78.72071793 95.13628525 78.7202597 95.84135712 78.7197876 96.5677948 C78.71676602 98.05817345 78.7088825 99.54854897 78.69651794 101.03887939 C78.67825195 103.32797346 78.67600831 105.6166634 78.67625427 107.90582275 C78.67133946 109.35178981 78.66551129 110.79775412 78.65867615 112.24371338 C78.65756332 112.93223892 78.6564505 113.62076447 78.65530396 114.33015442 C78.60676239 119.15500214 78.60676239 119.15500214 77.4907074 120.27105713 C75.89556847 120.39378562 74.29515808 120.44886756 72.69554138 120.47637939 C71.67455856 120.49632462 70.65357574 120.51626984 69.60165405 120.53681946 C67.93605186 120.5618882 67.93605186 120.5618882 66.23680115 120.58746338 C65.1062178 120.60824448 63.97563446 120.62902557 62.81079102 120.6504364 C59.18332755 120.7160551 55.55578907 120.7748739 51.9282074 120.83355713 C49.47572554 120.87673064 47.0232514 120.92034453 44.57078552 120.9644165 C38.54416871 121.07258132 32.51749866 121.17156321 26.4907074 121.27105713 C26.1607074 137.77105713 25.8307074 154.27105713 25.4907074 171.27105713 C32.71074646 171.23625244 32.71074646 171.23625244 40.0766449 171.20074463 C43.1209211 171.19052894 46.16517626 171.18090126 49.2094574 171.17340088 C54.04446282 171.16143227 58.87939271 171.14725383 63.71434021 171.12017822 C67.61115473 171.09849201 71.50788826 171.08649746 75.40475845 171.08130264 C76.89355876 171.07759927 78.3823545 171.07036775 79.87112045 171.05959702 C81.95193406 171.04513794 84.03241046 171.0430768 86.11326599 171.04400635 C87.29907257 171.03956512 88.48487915 171.0351239 89.70661926 171.0305481 C92.4907074 171.27105713 92.4907074 171.27105713 94.4907074 173.27105713 C94.74949646 176.22027588 94.74949646 176.22027588 94.7563324 179.95855713 C94.75824585 180.61686523 94.7601593 181.27517334 94.76213074 181.95343018 C94.7634919 183.34544253 94.75980023 184.7374676 94.75144958 186.12945557 C94.7407484 188.26288302 94.75134646 190.39546844 94.7641449 192.52886963 C94.76282329 193.88043399 94.76026087 195.23199783 94.7563324 196.58355713 C94.75407654 197.81718994 94.75182068 199.05082275 94.74949646 200.32183838 C94.4907074 203.27105713 94.4907074 203.27105713 92.4907074 205.27105713 C90.68566799 205.5199461 90.68566799 205.5199461 88.46054077 205.51829529 C87.19646141 205.52458702 87.19646141 205.52458702 85.90684509 205.53100586 C84.98053284 205.52538635 84.05422058 205.51976685 83.09983826 205.51397705 C82.12579544 205.5158754 81.15175262 205.51777374 80.14819336 205.51972961 C76.91723166 205.52344501 73.68649298 205.51272303 70.45555115 205.50152588 C68.21878079 205.50033449 65.98200992 205.49988083 63.74523926 205.50013733 C59.05351132 205.49857119 54.36185954 205.49027097 49.67015076 205.47686768 C43.64153207 205.45986787 37.61299711 205.45605353 31.58435726 205.45681286 C26.96486606 205.45654158 22.34539335 205.45106739 17.72590828 205.44381142 C15.50224002 205.44061853 13.27856965 205.4386559 11.05489922 205.43791771 C7.9539568 205.43576125 4.85310509 205.42703241 1.75218201 205.4163208 C0.82384552 205.41677399 -0.10449097 205.41722717 -1.06095886 205.41769409 C-7.39481878 205.38553095 -7.39481878 205.38553095 -8.5092926 204.27105713 C-8.61151969 201.67063073 -8.64815827 199.09661292 -8.64300537 196.49555969 C-8.64527093 195.67123882 -8.64753648 194.84691795 -8.64987069 193.99761766 C-8.65624038 191.2138316 -8.65537944 188.43009385 -8.65455627 185.64630127 C-8.65754591 183.65927568 -8.66094798 181.67225067 -8.66473389 179.68522644 C-8.67359783 174.27209777 -8.675913 168.85898488 -8.67654967 163.44584966 C-8.67749674 158.93511551 -8.68117267 154.42438508 -8.68472177 149.91365236 C-8.69287538 139.27635635 -8.69530517 128.6390688 -8.69459534 118.00177002 C-8.69399425 107.00968 -8.70455013 96.017639 -8.720339 85.02556139 C-8.73339129 75.60477881 -8.73878021 66.18401229 -8.73813993 56.76322073 C-8.73788426 51.12930578 -8.7407729 45.49543438 -8.75131798 39.8615284 C-8.76096023 34.56501496 -8.76110493 29.26858704 -8.75380135 23.97207069 C-8.75275067 22.02332688 -8.75514677 20.07457786 -8.7611618 18.12584305 C-8.76881683 15.47497239 -8.76428041 12.82440186 -8.75653076 10.17353821 C-8.76167432 9.39407445 -8.76681789 8.6146107 -8.77211732 7.81152683 C-8.72543433 0.63456162 -6.97770874 0.04724901 0 0 Z " fill="#010101" transform="translate(434.50929260253906,65.72894287109375)"/>
<path d="M0 0 C2.37836321 -0.00973442 4.75587034 -0.04087397 7.1340332 -0.07226562 C20.24211789 -0.16333845 32.15263036 0.91535128 42.35083008 9.91992188 C51.55143263 19.29558874 51.97854034 31.00490597 51.89770508 43.41601562 C51.87909424 44.75720459 51.87909424 44.75720459 51.86010742 46.12548828 C51.82309418 48.89457232 51.81909244 51.66233252 51.81958008 54.43164062 C51.80976503 56.19337101 51.79811513 57.95509235 51.78442383 59.71679688 C51.78219818 60.54378082 51.77997253 61.37076477 51.77767944 62.22280884 C51.68080087 68.00791983 51.68080087 68.00791983 49.44848633 70.24023438 C45.19106494 70.63886934 40.91901058 70.56925979 36.64501953 70.5559082 C34.52234427 70.55275127 32.40106697 70.57619198 30.27856445 70.6015625 C28.93025892 70.60383583 27.58194964 70.60453883 26.23364258 70.60351562 C25.00524658 70.60649658 23.77685059 70.60947754 22.51123047 70.61254883 C19.44848633 70.24023438 19.44848633 70.24023438 17.54760742 69.09619141 C15.96019223 66.41570934 16.07945603 64.28346225 16.07739258 61.18164062 C16.05999023 59.99119141 16.04258789 58.80074219 16.0246582 57.57421875 C16.01555782 55.06381318 16.01033732 52.55339048 16.0090332 50.04296875 C15.9903418 48.85123047 15.97165039 47.65949219 15.95239258 46.43164062 C15.95053955 45.34052979 15.94868652 44.24941895 15.94677734 43.12524414 C15.32533719 39.52722442 14.39178858 38.36083349 11.44848633 36.24023438 C9.01696599 35.63195757 9.01696599 35.63195757 6.38598633 35.70898438 C5.4243457 35.70382813 4.46270508 35.69867188 3.47192383 35.69335938 C1.97532227 35.7165625 1.97532227 35.7165625 0.44848633 35.74023438 C-0.54924805 35.72476563 -1.54698242 35.70929688 -2.57495117 35.69335938 C-3.5365918 35.69851562 -4.49823242 35.70367187 -5.48901367 35.70898438 C-6.36428711 35.71349609 -7.23956055 35.71800781 -8.14135742 35.72265625 C-11.38053782 36.4182663 -12.46823281 37.69641259 -14.55151367 40.24023438 C-15.13969496 42.73123229 -15.13969496 42.73123229 -15.03926086 45.48451233 C-15.04620468 46.54585892 -15.0531485 47.60720551 -15.06030273 48.70071411 C-15.04749268 49.85981293 -15.03468262 51.01891174 -15.02148438 52.21313477 C-15.02367477 53.43784988 -15.02586517 54.662565 -15.02812195 55.9243927 C-15.0300374 59.27999922 -15.01413817 62.63462059 -14.99002099 65.99008107 C-14.96872018 69.50138077 -14.96931957 73.01267855 -14.96733093 76.52403259 C-14.96088449 82.41952014 -14.93964112 88.31480012 -14.90820312 94.21020508 C-14.86789583 101.77882 -14.85051252 109.34729972 -14.84089375 116.91600895 C-14.83259306 123.42222309 -14.81535696 129.92840858 -14.79585624 136.43459773 C-14.79180712 137.83130202 -14.78806758 139.22800724 -14.78463387 140.62471318 C-14.7733456 145.21543824 -14.75318215 149.80605131 -14.72851562 154.39672852 C-14.72582672 155.55785156 -14.72313782 156.71897461 -14.72036743 157.9152832 C-14.71321213 158.97380997 -14.70605682 160.03233673 -14.69868469 161.12294006 C-14.69441121 162.04414674 -14.69013773 162.96535341 -14.68573475 163.91447544 C-14.64393022 166.39805853 -14.64393022 166.39805853 -13.55151367 169.24023438 C-10.59237955 170.22661242 -8.63752469 170.36912208 -5.55151367 170.37304688 C-4.58213867 170.37433594 -3.61276367 170.375625 -2.61401367 170.37695312 C-1.60338867 170.37308594 -0.59276367 170.36921875 0.44848633 170.36523438 C1.45911133 170.36910156 2.46973633 170.37296875 3.51098633 170.37695312 C4.48036133 170.37566406 5.44973633 170.374375 6.44848633 170.37304688 C7.33536133 170.37191895 8.22223633 170.37079102 9.13598633 170.36962891 C11.60849918 170.33285998 11.60849918 170.33285998 14.44848633 169.24023438 C15.52410737 166.01337124 15.62049653 163.54085789 15.69458008 160.14648438 C15.74388672 158.35404297 15.74388672 158.35404297 15.79418945 156.52539062 C15.85538515 154.00204478 15.91267723 151.47860125 15.96606445 148.95507812 C16.00022461 147.76011719 16.03438477 146.56515625 16.06958008 145.33398438 C16.10716431 143.68946289 16.10716431 143.68946289 16.14550781 142.01171875 C16.44848633 139.24023438 16.44848633 139.24023438 18.44848633 136.24023438 C21.48950195 135.86791992 21.48950195 135.86791992 25.35473633 135.87695312 C26.03524048 135.87645462 26.71574463 135.87595612 27.41687012 135.8754425 C28.85598673 135.87778355 30.29510738 135.88751408 31.73413086 135.90405273 C33.9400687 135.92764435 36.14479819 135.92461491 38.35083008 135.91796875 C49.16940383 135.96115187 49.16940383 135.96115187 51.44848633 138.24023438 C51.66113238 141.06493002 51.75244239 143.78884244 51.74926758 146.61523438 C51.7535527 147.4543335 51.75783783 148.29343262 51.76225281 149.15795898 C51.7680053 150.940095 51.76848963 152.72225449 51.76416016 154.50439453 C51.76103078 157.20192007 51.7843394 159.89831578 51.80981445 162.59570312 C51.86545805 177.30159523 50.08286233 187.8610412 39.88598633 199.05273438 C29.23202257 206.85816114 15.11590036 205.86055996 2.61914062 205.76171875 C-0.61103184 205.74025419 -3.83898635 205.76161177 -7.0690918 205.78710938 C-32.91992697 205.82362291 -32.91992697 205.82362291 -42.93823242 196.09570312 C-45.38390494 193.28288365 -46.92561903 190.61246029 -48.55151367 187.24023438 C-49.33372032 185.85648369 -49.33372032 185.85648369 -50.13172913 184.44477844 C-52.64341698 178.47897854 -51.97735848 171.82256648 -51.95556641 165.4675293 C-51.96127446 163.96549473 -51.9682404 162.46346449 -51.97636414 160.96144104 C-51.99426571 156.89513523 -51.99313249 152.82904558 -51.98742175 148.76271224 C-51.9843246 145.36087352 -51.99042841 141.95907601 -51.9964605 138.55724317 C-52.01049515 130.52665244 -52.00895414 122.49616811 -51.99755859 114.46557617 C-51.98608671 106.19886072 -52.00013971 97.93247006 -52.02695507 89.66579741 C-52.04915808 82.55300916 -52.05573886 75.4403225 -52.04987866 68.32750207 C-52.04651785 64.08617234 -52.04886516 59.84505061 -52.06612968 55.60375023 C-52.08166965 51.61202786 -52.0775659 47.62078378 -52.05882454 43.62907982 C-52.05515761 42.1706857 -52.05819137 40.7122556 -52.06871033 39.25389481 C-52.14455688 27.86155474 -50.48589753 17.88186137 -42.55151367 9.24023438 C-31.0640077 -1.32596786 -14.57024093 0.0359648 0 0 Z " fill="#020202" transform="translate(93.551513671875,65.759765625)"/>
<path d="M0 0 C1.04450317 0.00326294 1.04450317 0.00326294 2.11010742 0.0065918 C4.23278268 0.00974873 6.35405999 -0.01369198 8.4765625 -0.0390625 C9.82486803 -0.04133583 11.17317731 -0.04203883 12.52148438 -0.04101562 C14.36407837 -0.04548706 14.36407837 -0.04548706 16.24389648 -0.05004883 C19.30664062 0.32226562 19.30664062 0.32226562 21.17578125 1.70703125 C24.79078834 6.87043516 25.35331389 14.21862652 26.11914062 20.32226562 C27.04267269 27.407852 28.58890119 34.29682917 30.18164062 41.25976562 C32.3126757 50.60876071 34.19319782 59.94407247 35.76708984 69.40161133 C37.11976338 77.45050347 38.6899585 85.44751967 40.30664062 93.44726562 C40.56340576 94.71957031 40.8201709 95.991875 41.0847168 97.30273438 C41.58876796 99.79966196 42.09291601 102.29656999 42.59716797 104.79345703 C43.62453451 109.90342122 44.63154577 115.01697453 45.61914062 120.13476562 C45.77833984 120.94510254 45.93753906 121.75543945 46.1015625 122.59033203 C47.10361645 127.82021492 47.77412109 133.02343259 48.30664062 138.32226562 C48.96664063 138.32226562 49.62664062 138.32226562 50.30664062 138.32226562 C50.21382812 136.46601563 50.21382812 136.46601563 50.11914062 134.57226562 C50.1142757 130.72708064 50.67423498 127.41954336 51.66992188 123.70922852 C53.20341913 117.79824327 54.48771794 111.8685541 55.68164062 105.88085938 C55.89224121 104.8330983 56.1028418 103.78533722 56.31982422 102.70582581 C56.76153708 100.50363629 57.20178737 98.30115294 57.640625 96.09838867 C58.30038203 92.79113891 58.96727628 89.4853842 59.63476562 86.1796875 C61.73096766 75.73020651 63.69176166 65.29189497 65.28369141 54.75343323 C66.31844675 47.99362349 67.74308162 41.35439739 69.30664062 34.69726562 C71.38730807 25.6567943 73.21784541 16.66040452 74.56835938 7.48242188 C75.35270387 4.12509542 75.84895265 2.70160449 78.30664062 0.32226562 C81.46118164 -0.16357422 81.46118164 -0.16357422 85.31054688 -0.13867188 C86.32918068 -0.13729721 86.32918068 -0.13729721 87.36839294 -0.13589478 C88.80157476 -0.12986076 90.23474407 -0.11412025 91.66772461 -0.08935547 C93.86489127 -0.05280506 96.06037335 -0.04833636 98.2578125 -0.04882812 C109.01145366 0.02707866 109.01145366 0.02707866 111.30664062 2.32226562 C111.34167904 4.20302141 111.34167904 4.20302141 111.0355978 6.44360924 C110.87023913 7.65553951 110.87023913 7.65553951 110.70153987 8.89195323 C110.12864704 12.41768428 109.42858438 15.89666259 108.64332581 19.38076782 C108.47645687 20.13897587 108.30958793 20.89718392 108.13766235 21.67836797 C107.58331848 24.19170442 107.02227218 26.70349389 106.46118164 29.21533203 C106.05994284 31.02785021 105.65911555 32.84045953 105.25866699 34.65315247 C104.17410937 39.55679259 103.0836632 44.45910594 101.99201703 49.3611722 C100.84869647 54.49947132 99.71043604 59.63889136 98.57151794 64.77816772 C96.65888545 73.40523695 94.7426217 82.03149309 92.82397461 90.65722656 C90.60737769 100.62257905 88.39556063 110.58898256 86.18651634 120.5560118 C83.83175514 131.1803471 81.47373297 141.80395662 79.11463428 152.42732954 C78.43618422 155.48345718 77.75831655 158.53971351 77.08056831 161.59599686 C76.0147533 166.40141333 74.9467338 171.20633481 73.87702179 176.01088524 C73.48527409 177.77192682 73.09424177 179.53312772 72.70398521 181.29450035 C72.17028089 183.70268881 71.63394267 186.11027614 71.09693909 188.51773071 C70.94391801 189.21102718 70.79089693 189.90432365 70.63323885 190.6186291 C67.92756195 202.7013443 67.92756195 202.7013443 65.30664062 205.32226562 C62.83300011 205.54623521 60.47429855 205.65035345 57.99804688 205.65820312 C57.27552231 205.66485992 56.55299774 205.67151672 55.80857849 205.67837524 C54.27955676 205.68850525 52.7504908 205.69319216 51.22143555 205.69287109 C48.8812579 205.69724299 46.54296851 205.73355029 44.203125 205.77148438 C42.71810542 205.77735279 41.23307686 205.78132202 39.74804688 205.78320312 C39.04797012 205.79757416 38.34789337 205.81194519 37.62660217 205.82675171 C34.44552751 205.79682221 32.75313545 205.74481971 30.39428711 203.51245117 C28.84070341 200.38401135 28.33560195 197.17637493 27.80664062 193.75976562 C26.99631123 189.0017601 26.13632839 184.34424733 24.80664062 179.69726562 C21.90434044 169.53921498 20.02304037 159.15824235 18.30859375 148.74365234 C17.97773533 145.23614061 17.97773533 145.23614061 16.30664062 142.32226562 C16.08149242 140.42458791 15.85922589 138.52612544 15.68554688 136.62304688 C15.20870249 133.72756914 14.2498247 131.09980402 13.30664062 128.32226562 C11.78781429 122.46497362 10.36608243 116.59100783 9.68164062 110.57226562 C9.66518087 107.4736743 9.66518087 107.4736743 8.30664062 106.32226562 C7.81062679 103.86610073 7.35815881 101.41559649 6.93164062 98.94726562 C6.06598142 94.10332617 5.12445008 89.36425232 3.74414062 84.63476562 C2.23461345 79.44230827 1.45436488 74.23073592 0.73632812 68.87695312 C0.57284741 66.39512999 0.57284741 66.39512999 -0.69335938 65.32226562 C-1.01259429 63.26497393 -1.2049729 61.20613042 -1.41210938 59.13476562 C-1.51333981 57.30551232 -1.51333981 57.30551232 -2.69335938 56.32226562 C-2.91850758 54.42458791 -3.14077411 52.52612544 -3.31445312 50.62304688 C-3.79129751 47.72756914 -4.7501753 45.09980402 -5.69335938 42.32226562 C-7.21218571 36.46497362 -8.63391757 30.59100783 -9.31835938 24.57226562 C-9.33481913 21.4736743 -9.33481913 21.4736743 -10.69335938 20.32226562 C-11.09525966 18.4359745 -11.4399329 16.53734506 -11.75585938 14.63476562 C-11.93246094 13.59964844 -12.1090625 12.56453125 -12.29101562 11.49804688 C-12.68729235 8.37015385 -12.90495647 5.46920966 -12.69335938 2.32226562 C-9.30670722 -1.06438653 -4.57181389 0.01892366 0 0 Z " fill="#020202" transform="translate(1084.693359375,65.677734375)"/>
<path d="M0 0 C0.91381943 0.00247742 1.82763885 0.00495483 2.76914978 0.00750732 C3.73022644 0.00239639 4.6913031 -0.00271454 5.6815033 -0.00798035 C8.87036807 -0.0219232 12.05901785 -0.02091604 15.24790955 -0.01861572 C17.45746949 -0.02250009 19.66702869 -0.02683422 21.87658691 -0.03160095 C26.51283689 -0.03907329 31.14901074 -0.03876456 35.78526306 -0.0335083 C41.73531445 -0.0277126 47.68505467 -0.04464238 53.63505459 -0.06785297 C58.19973583 -0.08256367 62.76434169 -0.08346564 67.32904243 -0.08034325 C69.52315449 -0.08085781 71.71727062 -0.08612069 73.91135979 -0.09615517 C76.97614303 -0.10845049 80.0403143 -0.10176933 83.10508728 -0.09014893 C84.01688248 -0.09779266 84.92867767 -0.1054364 85.86810303 -0.11331177 C86.70233795 -0.10629745 87.53657288 -0.09928314 88.39608765 -0.09205627 C89.12078467 -0.09222402 89.8454817 -0.09239176 90.59213924 -0.09256458 C93.08668694 0.39693304 93.97446698 1.28052231 95.5018158 3.28216553 C95.88999939 6.23724365 95.88999939 6.23724365 95.9002533 9.81341553 C95.90412048 11.09861084 95.90798767 12.38380615 95.91197205 13.70794678 C95.90254578 14.71075684 95.90254578 14.71075684 95.89292908 15.73382568 C95.87686934 17.77535883 95.89278251 19.8149126 95.91197205 21.85638428 C95.90810486 23.14157959 95.90423767 24.4267749 95.9002533 25.75091553 C95.89686951 26.93105225 95.89348572 28.11118896 95.88999939 29.3270874 C95.5018158 32.28216553 95.5018158 32.28216553 94.41969299 33.94854736 C91.48134592 35.9917611 88.96634677 35.61846591 85.42759705 35.57513428 C84.7437645 35.57088943 84.05993195 35.56664459 83.3553772 35.56227112 C81.17462018 35.54549906 78.99479271 35.50785209 76.8143158 35.46966553 C75.33451145 35.45461667 73.85469259 35.44092861 72.37486267 35.4286499 C68.75021243 35.39560122 65.12610485 35.34382999 61.5018158 35.28216553 C61.50273759 36.14614897 61.50365938 37.01013241 61.50460911 37.90029716 C61.52666828 58.89752277 61.54322928 79.89474638 61.55362797 100.89198112 C61.55879001 111.0459726 61.56583098 121.19995635 61.57725525 131.35394287 C61.58720487 140.20144599 61.59366989 149.04894351 61.59590429 157.89645207 C61.59721092 162.58357188 61.6002938 167.27067568 61.60754585 171.95779037 C61.61431044 176.36536879 61.61643185 180.77292455 61.61492348 185.18050766 C61.61519961 186.80190148 61.61720214 188.42329602 61.62102127 190.04468536 C61.62596535 192.25106076 61.62481142 194.45734958 61.62207031 196.66372681 C61.62299211 197.90077299 61.6239139 199.13781918 61.62486362 200.41235161 C61.5018158 203.28216553 61.5018158 203.28216553 60.5018158 205.28216553 C55.67800778 205.30681743 50.85423613 205.32500245 46.03038025 205.33709717 C44.38812115 205.34213727 42.74586656 205.34896931 41.10362244 205.35760498 C38.74806101 205.36968478 36.39255871 205.37539691 34.03697205 205.37982178 C33.29842484 205.38498306 32.55987762 205.39014435 31.7989502 205.39546204 C30.03283492 205.39565803 28.26684434 205.34411271 26.5018158 205.28216553 C25.5018158 204.28216553 25.5018158 204.28216553 25.37876797 201.51978207 C25.37968976 200.27443974 25.38061155 199.02909742 25.38156128 197.74601746 C25.38070685 197.05504268 25.37985243 196.36406791 25.37897211 195.65215451 C25.37731533 193.31973332 25.38284189 190.9873829 25.38829041 188.65496826 C25.38857226 186.98981732 25.38841458 185.32466625 25.3878479 183.65951538 C25.38755986 179.12458447 25.39345763 174.58967977 25.40042186 170.05475497 C25.40665432 165.32083184 25.40725911 160.58690817 25.40844727 155.85298157 C25.4115609 146.88214453 25.41977472 137.91131961 25.42979676 128.94048792 C25.4409569 118.73026161 25.44646809 108.52003473 25.45149219 98.30980384 C25.46195731 77.30058429 25.47955737 56.29137567 25.5018158 35.28216553 C24.57844421 35.29787598 23.65507263 35.31358643 22.70372009 35.32977295 C19.27641691 35.38091385 15.84951938 35.41852087 12.42198181 35.44696045 C10.9388438 35.46204321 9.45575036 35.48251242 7.97276306 35.50848389 C5.84040835 35.54489168 3.70864345 35.56189626 1.57603455 35.57513428 C0.29301453 35.59084473 -0.99000549 35.60655518 -2.31190491 35.6227417 C-5.4981842 35.28216553 -5.4981842 35.28216553 -7.41705322 33.95527649 C-9.17527009 31.23433706 -8.86921662 28.69111876 -8.86146545 25.49700928 C-8.86196396 24.84011612 -8.86246246 24.18322296 -8.86297607 23.50642395 C-8.86063908 22.12036101 -8.85093246 20.73429354 -8.83436584 19.34832764 C-8.81072882 17.22367569 -8.81381229 15.1002753 -8.82044983 12.9755249 C-8.76705074 0.07470742 -8.76705074 0.07470742 0 0 Z " fill="#020202" transform="translate(684.4981842041016,65.71783447265625)"/>
<path d="M0 0 C0.90878906 0.00708984 1.81757812 0.01417969 2.75390625 0.02148438 C4.15962891 0.07079102 4.15962891 0.07079102 5.59375 0.12109375 C6.99947266 0.12979492 6.99947266 0.12979492 8.43359375 0.13867188 C18.8586699 0.32351365 18.8586699 0.32351365 23.09375 4.55859375 C24.00815499 7.97279929 24.22076313 11.19704491 24.22746277 14.71984863 C24.23172775 15.7376088 24.23599274 16.75536896 24.24038696 17.80397034 C24.23993378 18.90957809 24.23948059 20.01518585 24.23901367 21.15429688 C24.24237228 22.32717758 24.2457309 23.50005829 24.24919128 24.70848083 C24.2586906 28.58561257 24.26064374 32.4627011 24.26171875 36.33984375 C24.26314244 37.67733275 24.26473839 39.01482158 24.26650429 40.35231018 C24.27574703 47.35418121 24.27984034 54.35603323 24.27905273 61.35791016 C24.27845156 67.87958496 24.28901384 74.40117716 24.3047964 80.92283106 C24.31787677 86.52806312 24.32323645 92.13326818 24.32259732 97.73851538 C24.32234257 101.08374357 24.32610257 104.42883967 24.33577538 107.77406311 C24.345552 111.50374251 24.34270654 115.23320792 24.33666992 118.96289062 C24.34228943 120.06849838 24.34790894 121.17410614 24.35369873 122.31321716 C24.34950424 123.33097733 24.34530975 124.34873749 24.34098816 125.39733887 C24.34153293 126.27853142 24.34207769 127.15972397 24.34263897 128.06761932 C23.95615142 131.93573206 23.02573312 134.71704067 20.12109375 137.33984375 C15.64287645 139.14268736 11.4406202 139.07181938 6.65625 139.05859375 C5.72748047 139.08695313 4.79871094 139.1153125 3.84179688 139.14453125 C2.93623047 139.14710938 2.03066406 139.1496875 1.09765625 139.15234375 C0.28111572 139.15943359 -0.5354248 139.16652344 -1.37670898 139.17382812 C-5.14137321 138.25818737 -7.6921342 136.70110704 -9.90625 133.55859375 C-10.81787867 129.49033112 -10.71540922 125.47484084 -10.66674805 121.3203125 C-10.68010948 119.45857895 -10.68010948 119.45857895 -10.69374084 117.55923462 C-10.71138587 114.16182045 -10.70212864 110.76660201 -10.67927146 107.36935806 C-10.66032893 103.81092012 -10.67151793 100.2525565 -10.67817688 96.6940918 C-10.68451387 90.7187312 -10.6662669 84.74382081 -10.63354492 78.76855469 C-10.5960511 71.86492413 -10.59782973 64.96214636 -10.6205861 58.05847073 C-10.64155069 51.41140152 -10.63425249 44.76464683 -10.61426735 38.11758423 C-10.60629048 35.29146313 -10.60826159 32.46560875 -10.61829185 29.63949585 C-10.63082233 25.69162467 -10.60206913 21.74464081 -10.5690918 17.796875 C-10.57764191 16.62581207 -10.58619202 15.45474915 -10.59500122 14.24819946 C-10.46773667 5.43334616 -10.46773667 5.43334616 -7.51582336 2.3311615 C-4.6918825 0.41298339 -3.37203474 -0.0552088 0 0 Z " fill="#F2F4F9" transform="translate(1661.90625,99.44140625)"/>
<path d="M0 0 C0.90878906 0.00708984 1.81757813 0.01417969 2.75390625 0.02148438 C4.15962891 0.07079102 4.15962891 0.07079102 5.59375 0.12109375 C6.99947266 0.12979492 6.99947266 0.12979492 8.43359375 0.13867188 C18.8586699 0.32351365 18.8586699 0.32351365 23.09375 4.55859375 C24.01877487 8.00820109 24.2257229 11.28077247 24.24765015 14.84046936 C24.25625061 15.88491714 24.26485107 16.92936493 24.27371216 18.00546265 C24.27797211 19.14069366 24.28223206 20.27592468 24.28662109 21.44555664 C24.29888733 23.25117821 24.29888733 23.25117821 24.31140137 25.09327698 C24.33619612 29.07259799 24.3529078 33.05188128 24.3671875 37.03125 C24.37255023 38.40343163 24.37792775 39.77561321 24.38331985 41.14779472 C24.40492299 46.85344693 24.42366202 52.55909641 24.43494225 58.26477909 C24.45120412 66.43480427 24.48446453 74.60435577 24.54134309 82.77420241 C24.58001295 88.52463671 24.59957082 94.27494408 24.60486281 100.02550501 C24.60851771 103.45862096 24.62055401 106.89123031 24.65296555 110.3242054 C24.68857355 114.14995478 24.68468288 117.97510538 24.67724609 121.80102539 C24.69365143 122.93828064 24.71005676 124.07553589 24.72695923 125.24725342 C24.66564581 132.92482862 24.66564581 132.92482862 21.68228149 136.23094177 C16.52556548 138.87580981 12.55445261 138.81309104 6.78125 138.87109375 C5.83056641 138.90009766 4.87988281 138.92910156 3.90039062 138.95898438 C-0.46142709 138.99860955 -3.16439948 138.98130858 -7.01171875 136.7890625 C-10.03837881 133.22571633 -10.03225055 129.93002892 -10.06015015 125.36573792 C-10.06875061 124.3156958 -10.07735107 123.26565369 -10.08621216 122.18379211 C-10.09047211 121.03718613 -10.09473206 119.89058014 -10.09912109 118.70922852 C-10.10729858 117.49747955 -10.11547607 116.28573059 -10.12390137 115.03726196 C-10.14872839 111.02484464 -10.16541617 107.01246485 -10.1796875 103 C-10.18504931 101.61700878 -10.19042683 100.23401763 -10.19581985 98.85102654 C-10.21743282 93.09909372 -10.23617054 87.34716364 -10.24744225 81.59520054 C-10.26369254 73.35803155 -10.29691381 65.12133332 -10.35384309 56.88434178 C-10.39253687 51.08805254 -10.41207391 45.29188929 -10.41736281 39.49547428 C-10.42101563 36.03492632 -10.43302909 32.57488133 -10.46546555 29.11447334 C-10.50112493 25.25529243 -10.49717673 21.3967039 -10.48974609 17.53735352 C-10.50615143 16.39277176 -10.52255676 15.24819 -10.53945923 14.06892395 C-10.47134211 5.4474084 -10.47134211 5.4474084 -7.52078247 2.34738159 C-4.69251823 0.41236463 -3.38353811 -0.05539714 0 0 Z " fill="#F2F4F9" transform="translate(214.90625,99.44140625)"/>
<path d="M0 0 C9.24 0 18.48 0 28 0 C33.62521426 5.62521426 33.62521426 5.62521426 33.63491821 10.35107422 C33.64901733 11.41090515 33.66311646 12.47073608 33.67764282 13.56268311 C33.66752167 14.71504456 33.65740051 15.86740601 33.64697266 17.0546875 C33.65573425 18.27633606 33.66449585 19.49798462 33.67352295 20.75665283 C33.69174205 24.1001068 33.68749796 27.44201086 33.67162752 30.7853775 C33.65894789 34.28776599 33.67071433 37.79008931 33.67855835 41.29248047 C33.687649 47.17362324 33.67568271 53.05445183 33.65185547 58.93554688 C33.62464484 65.73010117 33.63345945 72.52390527 33.6609875 79.31844139 C33.68369459 85.15727842 33.68687098 90.99588992 33.67379415 96.83475685 C33.66600824 100.31979287 33.66493378 103.80447652 33.68147659 107.28948975 C33.69863321 111.17505948 33.67483939 115.05979233 33.64697266 118.9453125 C33.65709381 120.09767395 33.66721497 121.2500354 33.67764282 122.43731689 C33.6635437 123.49714783 33.64944458 124.55697876 33.63491821 125.64892578 C33.63303308 126.56699005 33.63114796 127.48505432 33.6292057 128.43093872 C33 131 33 131 28 136 C18.76 136 9.52 136 0 136 C0 91.12 0 46.24 0 0 Z " fill="#EFF1F6" transform="translate(333,101)"/>
<path d="M0 0 C0.99386719 -0.02449219 1.98773437 -0.04898438 3.01171875 -0.07421875 C10.33516174 -0.10363017 10.33516174 -0.10363017 14.2578125 2.2734375 C17.68063011 6.12589749 17.28596396 9.5575778 17.29296875 14.48828125 C17.29796135 15.69812935 17.29796135 15.69812935 17.30305481 16.93241882 C17.30812243 18.64138213 17.31046319 20.35035536 17.31030273 22.05932617 C17.31248259 24.66667154 17.33062141 27.27358928 17.34960938 29.88085938 C17.35254471 31.54166522 17.35452857 33.20247308 17.35546875 34.86328125 C17.36265427 35.64053055 17.36983978 36.41777985 17.37724304 37.21858215 C17.35987771 41.36110903 17.20693921 44.74302187 15.125 48.375 C10.80071589 52.63340247 5.91291372 51.88986155 0.1875 51.875 C-0.80185547 51.90335938 -1.79121094 51.93171875 -2.81054688 51.9609375 C-7.57446896 51.97375235 -10.07238554 51.96017708 -14.00390625 49.09375 C-18.22093655 42.96629052 -17.09678425 35.52574623 -17.11523438 28.35864258 C-17.12492337 26.08051812 -17.15596157 23.803303 -17.1875 21.52539062 C-17.19403275 20.06250531 -17.19928215 18.5996136 -17.203125 17.13671875 C-17.2154718 16.46356125 -17.2278186 15.79040375 -17.24053955 15.09684753 C-17.2172798 10.08042902 -16.19076332 6.73689691 -13.875 2.375 C-9.42784623 -0.58976918 -5.23265015 0.00673443 0 0 Z " fill="#EEF0F5" transform="translate(1480.875,185.625)"/>
<path d="M0 0 C1.09376953 -0.03287109 2.18753906 -0.06574219 3.31445312 -0.09960938 C4.37212891 -0.10669922 5.42980469 -0.11378906 6.51953125 -0.12109375 C7.96936401 -0.14127563 7.96936401 -0.14127563 9.44848633 -0.16186523 C13.41326158 0.70572753 14.81315921 2.1722171 17.1875 5.4375 C17.86973454 8.31516057 17.84266351 11.08098535 17.78125 14.02734375 C17.78129028 14.84948868 17.78133057 15.67163361 17.78137207 16.51869202 C17.77602501 18.25269233 17.75847686 19.98669269 17.72949219 21.72045898 C17.68768622 24.36322778 17.68842253 27.00344098 17.6953125 29.64648438 C17.68481696 31.33595508 17.6718769 33.02541272 17.65625 34.71484375 C17.65604858 35.49939438 17.65584717 36.28394501 17.65563965 37.0922699 C17.55310217 41.88794138 16.92504473 45.33312498 14.1875 49.4375 C10.11766875 52.32079455 5.54714374 51.76818478 0.75 51.75 C-0.5194043 51.77416992 -0.5194043 51.77416992 -1.81445312 51.79882812 C-6.65581522 51.80261932 -9.87304659 51.55718275 -13.8125 48.4375 C-17.6055152 44.6444848 -16.9848147 39.92584214 -17.015625 34.8203125 C-17.02132507 34.0855368 -17.02702515 33.35076111 -17.03289795 32.59371948 C-17.04232373 31.04214914 -17.04887229 29.49055901 -17.05273438 27.93896484 C-17.0624386 25.57744097 -17.09348291 23.21678858 -17.125 20.85546875 C-17.13153112 19.34375514 -17.13678116 17.83203534 -17.140625 16.3203125 C-17.1529718 15.62011993 -17.1653186 14.91992737 -17.17803955 14.19851685 C-17.12005037 1.30370739 -10.9766579 0.05760345 0 0 Z " fill="#EEF0F5" transform="translate(1480.8125,100.5625)"/>
<path d="M0 0 C3.03391871 3.03391871 2.80355442 6.78279105 3.30078125 10.8828125 C4.44003614 19.51508163 5.86164067 28.06213543 7.48046875 36.6171875 C7.69986115 37.78090881 7.91925354 38.94463013 8.14529419 40.14361572 C9.05481203 44.94832776 9.97226752 49.7514969 10.89233398 54.55419922 C11.57288566 58.11587176 12.2457717 61.67893029 12.91796875 65.2421875 C13.12729538 66.32136444 13.33662201 67.40054138 13.55229187 68.51242065 C13.83807854 70.0316362 13.83807854 70.0316362 14.12963867 71.58154297 C14.29823898 72.46196259 14.46683929 73.3423822 14.64054871 74.2494812 C15.06200211 77.47443969 15 80.7476193 15 84 C5.1 84 -4.8 84 -15 84 C-15 76.12602517 -15 76.12602517 -14.36083984 72.8894043 C-14.14933037 71.79175751 -14.14933037 71.79175751 -13.93354797 70.67193604 C-13.69960579 69.50981598 -13.69960579 69.50981598 -13.4609375 68.32421875 C-13.29945724 67.492995 -13.13797699 66.66177124 -12.97160339 65.80535889 C-12.44496005 63.09828758 -11.90988189 60.39295425 -11.375 57.6875 C-10.63802752 53.91221102 -9.90625706 50.13592589 -9.17578125 46.359375 C-8.99166183 45.40965317 -8.80754242 44.45993134 -8.61784363 43.48143005 C-6.53726556 32.69589937 -4.65699172 21.87625728 -2.81591797 11.04760742 C-2.69936356 10.37086975 -2.58280914 9.69413208 -2.46272278 8.99688721 C-2.15116325 7.18782823 -1.84408558 5.37799897 -1.53735352 3.56811523 C-1 1 -1 1 0 0 Z " fill="#EDEFF4" transform="translate(1278,116)"/>
<path d="M0 0 C2.26695279 3.40042919 2.77754729 6.37688315 3.4375 10.3125 C3.69494179 11.77243138 3.95408548 13.23206357 4.21484375 14.69140625 C4.34487793 15.42117676 4.47491211 16.15094727 4.60888672 16.90283203 C5.16219997 19.86972393 5.83164598 22.80714275 6.5 25.75 C7.94913348 32.35412395 8.91930916 38.98891761 9.87280273 45.67773438 C10.71596021 51.46127631 11.8989316 57.07127913 13.3046875 62.74609375 C14.66256721 69.10066563 15.27050016 75.5467322 16 82 C5.77 82 -4.46 82 -15 82 C-13.219247 67.75397601 -10.80313714 53.71800224 -7.91381836 39.65527344 C-6.16686044 31.06721516 -4.68650097 22.45046666 -3.34399414 13.7902832 C-2.58597579 9.01200895 -1.73392868 4.54487915 0 0 Z " fill="#EFF1F6" transform="translate(989,118)"/>
<path d="M0 0 C1.28841797 -0.00257813 2.57683594 -0.00515625 3.90429688 -0.0078125 C4.5769458 -0.00362305 5.24959473 0.00056641 5.94262695 0.00488281 C7.99265274 0.01556635 10.04179872 0.00499537 12.09179688 -0.0078125 C14.02635742 -0.00394531 14.02635742 -0.00394531 16 0 C17.7797522 0.00338379 17.7797522 0.00338379 19.59545898 0.00683594 C22.56640625 0.265625 22.56640625 0.265625 25.56640625 2.265625 C25.9387207 5.21484375 25.9387207 5.21484375 25.9296875 8.953125 C25.93043526 9.94058716 25.93043526 9.94058716 25.93119812 10.94799805 C25.92885729 12.34003721 25.91912805 13.73208057 25.90258789 15.12402344 C25.87899559 17.2575455 25.88202585 19.38981819 25.88867188 21.5234375 C25.84549936 31.98653189 25.84549936 31.98653189 23.56640625 34.265625 C20.6171875 34.52441406 20.6171875 34.52441406 16.87890625 34.53125 C16.22059814 34.53316345 15.56229004 34.5350769 14.8840332 34.53704834 C13.49202085 34.5384095 12.09999578 34.53471783 10.70800781 34.52636719 C8.57458036 34.515666 6.44199494 34.52626406 4.30859375 34.5390625 C2.95702939 34.53774089 1.60546555 34.53517847 0.25390625 34.53125 C-0.97972656 34.52899414 -2.21335937 34.52673828 -3.484375 34.52441406 C-6.43359375 34.265625 -6.43359375 34.265625 -8.43359375 32.265625 C-8.69238281 29.31640625 -8.69238281 29.31640625 -8.69921875 25.578125 C-8.7011322 24.91981689 -8.70304565 24.26150879 -8.70501709 23.58325195 C-8.70637825 22.1912396 -8.70268658 20.79921453 -8.69433594 19.40722656 C-8.68363475 17.27379911 -8.69423281 15.14121369 -8.70703125 13.0078125 C-8.70570964 11.65624814 -8.70314722 10.3046843 -8.69921875 8.953125 C-8.69696289 7.71949219 -8.69470703 6.48585937 -8.69238281 5.21484375 C-8.18597262 -0.55632148 -4.98163145 0.00948044 0 0 Z " fill="#000000" transform="translate(1566.43359375,236.734375)"/>
</svg>
