<svg xmlns="http://www.w3.org/2000/svg" width="308" height="64" fill="none"><g clip-path="url(#a)"><path fill="#273339" d="M79.581 12.494h16.527a25.8 25.8 0 0 1 11.613 2.412 17.08 17.08 0 0 1 7.459 6.99 21.7 21.7 0 0 1 2.591 10.855 22 22 0 0 1-2.568 10.92 16.93 16.93 0 0 1-7.437 6.99 26 26 0 0 1-11.658 2.413H79.58zm15.79 32.093a12.15 12.15 0 0 0 8.933-2.948 12.05 12.05 0 0 0 2.948-8.933 11.94 11.94 0 0 0-2.948-8.933 12.22 12.22 0 0 0-8.933-2.904H90.1v23.718zm54.18-3.685h-17.509a6.07 6.07 0 0 0 2.01 3.976 7.1 7.1 0 0 0 4.467 1.206 14.2 14.2 0 0 0 7.995-2.591l2.591 6.7a16.7 16.7 0 0 1-5.137 2.457 20.9 20.9 0 0 1-5.985.893 18.7 18.7 0 0 1-8.465-1.787 12.8 12.8 0 0 1-5.494-5.136 15.4 15.4 0 0 1-1.92-7.84 15.8 15.8 0 0 1 1.809-7.637 13.06 13.06 0 0 1 5.069-5.249 14.45 14.45 0 0 1 7.348-1.876 12.5 12.5 0 0 1 9.603 3.953 15.12 15.12 0 0 1 3.574 10.63zm-17.621-4.935h8.934q-.336-5.07-4.467-5.07t-4.467 5.07M172.957 24.8h10.027l-12.64 28.296h-8.465L149.44 24.8h10.72l6.231 15.946zm27.983 0h6.7v7.549h-6.7V53.14H190.6V32.304h-5.204V24.8h5.204a11.84 11.84 0 0 1 3.886-8.933 18.1 18.1 0 0 1 10.809-3.417l3.507-.224.58 7.437-2.702.112a9.2 9.2 0 0 0-4.467.983 3.42 3.42 0 0 0-1.273 3.06zm15.745 26.956a13 13 0 0 1-5.471-5.159 15.4 15.4 0 0 1-1.921-7.839 15.23 15.23 0 0 1 1.921-7.816 12.93 12.93 0 0 1 5.449-5.092 19.9 19.9 0 0 1 16.482 0 12.93 12.93 0 0 1 5.449 5.092 15.23 15.23 0 0 1 1.921 7.816 15.4 15.4 0 0 1-1.921 7.84 13.06 13.06 0 0 1-5.561 5.158 19.54 19.54 0 0 1-16.437 0zm13.691-12.998q0-7.145-5.472-7.146-5.471 0-5.472 7.146 0 7.146 5.472 7.147 5.471 0 5.472-7.147m14.807 14.338V12.494h10.184v40.602zm15.946-42.5h10.72v9.268h-10.72zm.223 42.433V24.8h10.251v28.297zm22.289-1.273a13 13 0 0 1-5.472-5.159 15.4 15.4 0 0 1-1.921-7.839 15.23 15.23 0 0 1 1.921-7.816 12.93 12.93 0 0 1 5.449-5.092 19.9 19.9 0 0 1 16.482 0 12.93 12.93 0 0 1 5.45 5.092 15.23 15.23 0 0 1 1.92 7.816 15.4 15.4 0 0 1-1.92 7.84 13.07 13.07 0 0 1-5.517 5.158 19.54 19.54 0 0 1-16.437 0zm13.69-12.998q0-7.145-5.472-7.146-5.47 0-5.471 7.146 0 7.146 5.471 7.147 5.471 0 5.45-7.147z"/><g fill="#3770FF" clip-path="url(#b)"><path d="M61.314 35.24a28.44 28.44 0 0 1-25.68 28.55s-18.437.472-24.537 0a6.37 6.37 0 0 1-5.114-3.857 7.8 7.8 0 0 0 2.714.65c1.996.18 5.405.27 10.16.27 6.975 0 14.578-.202 14.646-.202h.134a29.94 29.94 0 0 0 19.76-9.846 31.4 31.4 0 0 0 7.916-17.315z"/><path d="M59.07 28.982a28.44 28.44 0 0 1-25.725 28.529s-18.436.47-24.536 0A6.86 6.86 0 0 1 3 50.558V7.115A6.863 6.863 0 0 1 8.944.229c6.122-.516 24.536 0 24.536 0a28.44 28.44 0 0 1 25.59 28.753"/></g></g><defs><clipPath id="a"><path fill="#fff" d="M0 0h308v64H0z"/></clipPath><clipPath id="b"><path fill="#fff" d="M-.09 0h64v64h-64z"/></clipPath></defs></svg>