<svg xmlns="http://www.w3.org/2000/svg" width="300" height="69" fill="none"><path fill="#fff" d="M27.532 67.714c-6.791 0-13.528-2.422-19.28-7.086L7.24 59.8l10.38-11.836c.216-.247.531-.399.857-.426.327-.016.655.095.9.315.247.222.395.537.423.867.013.33-.096.66-.312.91l-8.632 9.84c7.252 5.395 16.008 7.089 24.231 4.623l10.05-3.028 10.05 3.028c8.209 2.466 16.964.784 24.217-4.61l-8.753-9.908c-.219-.25-.327-.58-.315-.91.015-.33.164-.646.409-.868.247-.219.575-.33.9-.315.327.013.642.164.86.414l10.5 11.891-1.022.825c-8.1 6.552-18.123 8.685-27.519 5.864l-9.34-2.809-9.34 2.809a28.4 28.4 0 0 1-8.252 1.21"/><path stroke="#fff" stroke-linejoin="round" stroke-width=".54" d="M27.532 67.714c-6.791 0-13.528-2.422-19.28-7.086L7.24 59.8l10.38-11.836c.216-.247.531-.399.857-.426.327-.016.655.095.9.315.247.222.395.537.423.867.013.33-.096.66-.312.91l-8.632 9.84c7.252 5.395 16.008 7.089 24.231 4.623l10.05-3.028 10.05 3.028c8.209 2.466 16.964.784 24.217-4.61l-8.753-9.908c-.219-.25-.327-.58-.315-.91.015-.33.164-.646.409-.868.247-.219.575-.33.9-.315.327.013.642.164.86.414l10.5 11.891-1.022.825c-8.1 6.552-18.123 8.685-27.519 5.864l-9.34-2.809-9.34 2.809a28.4 28.4 0 0 1-8.252 1.21"/><path fill="#fff" stroke="#fff" stroke-linecap="round" stroke-linejoin="round" stroke-width=".54" d="M45.124 62.456 24.668 50.55a17.6 17.6 0 0 1-5.36-6.373 17.8 17.8 0 0 1-1.852-8.145l.176-12.194 8.18 2.71c.165.055.3.123.44.234.12.109.231.235.3.386.08.151.12.302.136.466 0 .167 0 .33-.056.497a1.4 1.4 0 0 1-.244.426 1.4 1.4 0 0 1-.384.302c-.148.071-.312.111-.476.124-.164 0-.328 0-.492-.068l-4.976-1.651-.124 8.78a15.2 15.2 0 0 0 1.584 6.963 15.1 15.1 0 0 0 4.568 5.466l19.048 11.092L64.42 48.474A15 15 0 0 0 69 43.008a15.3 15.3 0 0 0 1.583-6.975l-.123-8.783-5.672 1.832a1.25 1.25 0 0 1-.943-.083 1.252 1.252 0 0 1 .191-2.299l8.852-2.849.163 12.154c.04 2.834-.6 5.642-1.855 8.173a17.55 17.55 0 0 1-5.387 6.373l-.109.068z"/><path fill="#fff" d="m45.179 42.555-17.251-9.95 17.251 24.61 16.868-24.61z"/><path fill="#fff" d="M45.177 0 28.472 28.132 45.15 38.344l16.91-10.076zM10.692 51.184c-.285 0-.56-.096-.777-.275a1.3 1.3 0 0 1-.436-.7c-.82-3.649-3.151-7.556-6.723-11.272L1.35 37.49l1.909-.618c4.227-1.349 7.91-1.543 11.279-.564.312.095.585.302.736.592.164.287.189.633.108.948-.083.318-.3.592-.587.744a1.24 1.24 0 0 1-.94.11c-2.413-.703-4.964-.703-7.924 0 3.11 3.593 5.156 7.337 5.975 10.93.04.176.04.37 0 .549a1.1 1.1 0 0 1-.247.494 1.2 1.2 0 0 1-.436.345 1.2 1.2 0 0 1-.532.124"/><path stroke="#fff" stroke-linecap="round" stroke-linejoin="round" stroke-width=".54" d="M10.692 51.184c-.285 0-.56-.096-.777-.275a1.3 1.3 0 0 1-.436-.7c-.82-3.649-3.151-7.556-6.723-11.272L1.35 37.49l1.909-.618c4.227-1.349 7.91-1.543 11.279-.564.312.095.585.302.736.592.164.287.189.633.108.948-.083.318-.3.592-.587.744a1.24 1.24 0 0 1-.94.11c-2.413-.703-4.964-.703-7.924 0 3.11 3.593 5.156 7.337 5.975 10.93.04.176.04.37 0 .549a1.1 1.1 0 0 1-.247.494 1.2 1.2 0 0 1-.436.345 1.2 1.2 0 0 1-.532.124"/><path fill="#fff" d="M79.677 51.184q-.286 0-.532-.123a1.6 1.6 0 0 1-.436-.343 1.15 1.15 0 0 1-.245-.497c-.04-.179-.04-.37 0-.55.817-3.592 2.864-7.336 5.972-10.928-2.96-.704-5.508-.704-7.923 0-.15.04-.313.055-.477.04a1.1 1.1 0 0 1-.464-.151 1.205 1.205 0 0 1-.585-.756c-.042-.152-.055-.318-.042-.482.015-.166.068-.317.15-.469a1.233 1.233 0 0 1 .736-.59c3.37-.978 7.065-.799 11.278.563l1.91.62-1.406 1.444c-3.573 3.716-5.904 7.611-6.721 11.272-.068.277-.22.524-.436.703-.22.179-.492.275-.78.275"/><path stroke="#fff" stroke-miterlimit="10" stroke-width=".54" d="M79.677 51.184q-.286 0-.532-.123a1.6 1.6 0 0 1-.436-.343 1.15 1.15 0 0 1-.245-.497c-.04-.179-.04-.37 0-.55.817-3.592 2.864-7.336 5.972-10.928-2.96-.704-5.508-.704-7.923 0-.15.04-.313.055-.477.04a1.1 1.1 0 0 1-.464-.151 1.205 1.205 0 0 1-.585-.756c-.042-.152-.055-.318-.042-.482.015-.166.068-.317.15-.469a1.233 1.233 0 0 1 .736-.59c3.37-.978 7.065-.799 11.278.563l1.91.62-1.406 1.444c-3.573 3.716-5.904 7.611-6.721 11.272-.068.277-.22.524-.436.703-.22.179-.492.275-.78.275"/><path fill="#fff" d="M25.392 24.003c-.177 0-.34-.04-.505-.111a1.3 1.3 0 0 1-.423-.303 1.2 1.2 0 0 1-.257-.454 1.3 1.3 0 0 1-.056-.522l.98-8.906 6.18 4.253c.257.194.436.481.504.799.053.317 0 .648-.192.922a1.23 1.23 0 0 1-.776.522c-.315.071-.655 0-.915-.179l-2.78-1.913-.533 4.777a1.22 1.22 0 0 1-.408.797c-.232.207-.52.318-.832.318"/><path stroke="#fff" stroke-linejoin="round" stroke-width=".54" d="M25.392 24.003c-.177 0-.34-.04-.505-.111a1.3 1.3 0 0 1-.423-.303 1.2 1.2 0 0 1-.257-.454 1.3 1.3 0 0 1-.056-.522l.98-8.906 6.18 4.253c.257.194.436.481.504.799.053.317 0 .648-.192.922a1.23 1.23 0 0 1-.776.522c-.315.071-.655 0-.915-.179l-2.78-1.913-.533 4.777a1.22 1.22 0 0 1-.408.797c-.232.207-.52.318-.832.318"/><path fill="#fff" d="M64.568 24.003a1.25 1.25 0 0 1-1.225-1.102l-.615-4.815-2.809 1.926c-.272.191-.6.262-.927.191a1.18 1.18 0 0 1-.792-.521 1.2 1.2 0 0 1-.19-.936c.069-.33.245-.62.518-.799l6.15-4.24 1.118 8.879c.027.179 0 .358-.04.522-.056.166-.137.33-.26.453-.121.139-.26.235-.421.318a1.4 1.4 0 0 1-.507.11"/><path stroke="#fff" stroke-linecap="round" stroke-linejoin="round" stroke-width=".54" d="M64.568 24.003a1.25 1.25 0 0 1-1.225-1.102l-.615-4.815-2.809 1.926c-.272.191-.6.262-.927.191a1.18 1.18 0 0 1-.792-.521 1.2 1.2 0 0 1-.19-.936c.069-.33.245-.62.518-.799l6.15-4.24 1.118 8.879c.027.179 0 .358-.04.522-.056.166-.137.33-.26.453-.121.139-.26.235-.421.318a1.4 1.4 0 0 1-.507.11"/><path fill="#fff" d="M189.585 18.842v15.497H171.3V18.842h-61.46v36.79h28.077V49.85h-20.589v-9.73h20.604v-5.781h-20.604v-9.716h29.848V55.63h7.473V24.623h9.179V55.63h7.485V40.12H189.6v15.497h7.472V18.842h-7.487M202.009 55.631h5.919V18.72h-5.919zM213.149 30.635h5.74v2.315c2.004-1.997 4.256-3.003 6.764-3.003 2.879 0 5.128.923 6.736 2.753 1.392 1.555 2.088 4.102 2.088 7.626v15.318h-5.741V41.687c0-2.463-.343-4.17-1.023-5.105-.668-.963-1.868-1.432-3.613-1.432q-2.844 0-4.051 1.899c-.777 1.253-1.172 3.428-1.172 6.54v12.055h-5.741V30.635zM242.74 43.051c0 2.395.641 4.349 1.909 5.849 1.308 1.528 2.944 2.284 4.936 2.284 2.115 0 3.832-.728 5.14-2.2 1.311-1.529 1.964-3.455 1.964-5.794 0-2.34-.653-4.28-1.964-5.796-1.308-1.485-3-2.228-5.085-2.228-1.963 0-3.615.756-4.936 2.256-1.311 1.528-1.964 3.4-1.964 5.642zm13.581-24.333h5.743v36.913h-5.743v-2.614c-2.249 2.228-4.8 3.33-7.649 3.33-3.395 0-6.204-1.253-8.44-3.744-2.224-2.546-3.328-5.725-3.328-9.552s1.104-6.84 3.328-9.345c2.208-2.519 4.977-3.772 8.317-3.772 2.904 0 5.496 1.198 7.787 3.593V18.718zM266.153 55.631h5.715V30.635h-5.715zm-.857-33.184c0-1.003.368-1.886 1.089-2.614.34-.358.751-.633 1.2-.827a3.4 3.4 0 0 1 1.419-.275c1.036 0 1.909.37 2.645 1.102.723.716 1.091 1.596 1.091 2.642s-.368 1.941-1.091 2.67c-.34.358-.736.632-1.2.826-.449.192-.94.288-1.417.275-.492 0-.983-.083-1.432-.275a3.7 3.7 0 0 1-1.215-.826c-.736-.729-1.089-1.637-1.089-2.698M280.676 43.051c0 2.395.641 4.349 1.909 5.849 1.308 1.528 2.944 2.284 4.936 2.284 2.115 0 3.832-.728 5.128-2.2 1.308-1.529 1.964-3.457 1.964-5.797s-.656-4.278-1.964-5.793c-1.309-1.487-3-2.228-5.088-2.228-1.964 0-3.612.756-4.936 2.256-1.308 1.528-1.964 3.413-1.964 5.642zm13.581-12.416h5.74v24.996h-5.74v-2.617c-2.36 2.231-4.896 3.33-7.596 3.33-3.421 0-6.257-1.25-8.493-3.74-2.223-2.547-3.328-5.728-3.328-9.553 0-3.827 1.105-6.867 3.328-9.373 2.221-2.506 5.004-3.744 8.345-3.744 2.876 0 5.468 1.198 7.759 3.593v-2.904z"/></svg>