<svg xmlns="http://www.w3.org/2000/svg" width="256" height="74" fill="none"><path fill="#0090FF" fill-rule="evenodd" d="M36.793 73.665C16.484 73.743-.092 57.105 0 36.659.093 16.446 16.59-.121 37.034 0 57.186.12 73.738 16.637 73.58 37.144c-.154 20.122-16.539 36.586-36.787 36.52" clip-rule="evenodd"/><path fill="#fff" fill-rule="evenodd" d="m41.362 33.856 9.577 1.354.768-2.754-9.905-1.468c1.146-4.06 2.136-7.941 3.373-11.744.408-1.251 1.32-2.426 2.248-3.398 1.218-1.274 2.903-.992 3.935.408.433.587.84 1.207 1.358 1.709.661.64 1.636.95 2.3.328.437-.41.423-1.372.463-2.095.017-.29-.326-.633-.563-.901-1.153-1.308-2.711-1.77-4.357-1.84-3.671-.154-6.306 1.72-8.374 4.553-2.05 2.808-2.95 6.11-3.928 9.372-.285.952-.53 1.917-.816 2.962l-10.532-1.525-.366 2.799 10.29 1.585-1.337 5.64-9.834-1.376-.363 2.766 9.532 1.458c0 .356.04.563-.006.751-1.006 4.293-1.941 8.605-3.07 12.865-.539 2.031-1.406 3.992-3.092 5.42-1.389 1.174-2.914.978-3.958-.48-.471-.656-.865-1.436-1.488-1.897-.455-.337-1.467-.54-1.8-.27-.495.402-.854 1.29-.812 1.941.036.578.591 1.254 1.1 1.648 1.718 1.324 3.739 1.516 5.787 1.113 3.43-.677 5.848-2.82 7.347-5.85 1.178-2.381 2.06-4.925 2.894-7.457.755-2.292 1.267-4.665 1.907-7.083l10.04 1.457.8-2.772-10.283-1.515z" clip-rule="evenodd"/><path fill="#000" d="M99.69 52.823V38.415h16.076v-4.728H99.689v-8.734h17.068V20.18H93.97v32.643zm26.138-27.24V20.18h-5.359v5.403zm0 27.24V28.6h-5.359v24.223zm11.386 0V20.18h-5.359v32.643zm16.902.585c6.215 0 9.907-3.962 10.988-7.834h-5.269c-.945 2.296-3.107 3.377-5.944 3.377-3.062 0-6.215-2.207-6.575-6.71h18.058c.496-8.103-4.188-14.182-11.618-14.182-6.845 0-11.889 5.178-11.889 12.472 0 6.979 4.458 12.877 12.249 12.877m5.809-15.083h-12.609c.495-4.548 3.918-6.078 6.44-6.078 3.152 0 6.034 2.296 6.169 6.078m20.708 15.083c5.179 0 10.177-3.197 11.258-8.87h-5.224c-.72 3.242-3.287 4.413-5.944 4.413-3.152 0-6.215-2.477-6.215-8.24 0-5.718 2.973-8.194 6.35-8.194 2.927 0 5.134 1.8 5.629 4.367h5.224c-.946-5.358-5.539-8.825-10.853-8.825-7.25 0-11.889 5.493-11.889 12.697s4.639 12.652 11.664 12.652m26.328 0c5.899 0 11.933-3.872 11.933-12.652 0-8.735-6.034-12.697-11.933-12.697-5.9 0-11.934 3.962-11.934 12.697 0 8.78 6.034 12.652 11.934 12.652m0-4.367c-3.423 0-6.395-2.657-6.395-8.285 0-5.583 2.972-8.33 6.395-8.33s6.394 2.747 6.394 8.33c0 5.628-2.972 8.285-6.394 8.285m22.072-23.458V20.18h-5.359v5.403zm0 27.24V28.6h-5.359v24.223zm11.385 0V39.946c0-4.368 1.487-7.52 5.63-7.52s4.593 3.242 4.593 6.484v13.913H256V37.604c0-5.763-2.387-9.545-8.241-9.545-3.423 0-5.944 1.396-7.341 3.917V28.6h-5.358v24.223z"/></svg>