<svg xmlns="http://www.w3.org/2000/svg" width="291" height="64" fill="none"><path fill="#061024" d="M113.634 20.356c1.783 1.078 3.291 2.561 4.25 4.583 1.096 2.023 1.645 4.45 1.645 7.145 0 2.697-.549 4.988-1.782 7.01-1.096 2.023-2.742 3.506-4.798 4.45-2.056 1.078-4.523 1.617-7.128 1.617-1.508 0-2.878-.27-4.249-.809-1.371-.404-2.604-1.213-3.564-2.157v14.02h-7.95V19.278h6.854l.685 2.966c3.015-2.427 6.305-3.64 9.732-3.64 2.331 0 4.524.54 6.305 1.753m-4.386 16.716q2.057-1.819 2.057-4.853c0-2.022-.686-3.64-1.919-4.988-1.235-1.348-2.879-1.887-4.661-1.887-1.508 0-2.879.27-3.975.944-1.097.539-1.92 1.482-2.605 2.696v6.066c.411 1.214 1.234 2.157 2.193 2.831a7.1 7.1 0 0 0 3.838 1.079c2.057 0 3.701-.674 5.072-1.888M124.189 25.071c1.234-1.887 2.879-3.505 5.072-4.584s4.66-1.752 7.402-1.752 5.209.54 7.402 1.753c2.057 1.078 3.701 2.696 4.934 4.718 1.235 2.022 1.783 4.18 1.783 6.74 0 2.562-.548 4.719-1.783 6.741-1.233 2.022-2.741 3.64-4.934 4.719-2.056 1.078-4.66 1.752-7.402 1.752q-4.113 0-7.402-1.617c-2.193-1.079-3.838-2.562-5.072-4.584a14.4 14.4 0 0 1-1.782-7.01c0-2.562.685-4.854 1.782-6.876m8.087 11.729c1.097 1.348 2.605 1.887 4.387 1.887s3.29-.674 4.387-1.887 1.644-2.966 1.644-4.853q0-3.034-1.644-4.854c-1.235-1.348-2.605-2.022-4.524-2.022-1.783 0-3.153.674-4.386 1.887-1.097 1.349-1.645 2.966-1.645 4.989 0 1.887.548 3.505 1.781 4.853M163.666.132v44.354h-7.95V.132zM196.29 19.95l-16.175 36.399h-7.676l6.031-13.077-11.514-23.323h9.047l6.579 14.56 6.581-14.56zM226.721 19.948v24.536c0 2.292-.686 4.449-2.056 6.336s-3.152 3.37-5.483 4.45c-2.331 1.078-4.798 1.617-7.539 1.617-2.057 0-3.838-.27-5.346-.674q-2.262-.81-3.701-1.618c-1.096-.674-2.194-1.483-3.427-2.561l4.66-5.393a13.4 13.4 0 0 0 3.428 2.427c1.096.539 2.603.944 4.249.944 2.056 0 3.7-.54 5.071-1.483s2.057-2.427 2.057-4.18v-3.505a8.94 8.94 0 0 1-3.564 3.1q-2.467 1.215-5.758 1.214c-2.193 0-4.386-.539-6.305-1.752-1.919-1.079-3.427-2.697-4.66-4.719-1.097-2.022-1.783-4.18-1.783-6.606s.549-4.718 1.783-6.74 2.741-3.64 4.798-4.853c1.918-1.214 3.974-1.753 6.167-1.753 2.057 0 3.839.27 5.484.809s2.878 1.348 3.7 2.292l.822-1.888zm-8.087 15.1V28.98c-.549-1.214-1.371-2.157-2.605-2.831a8.6 8.6 0 0 0-4.249-1.079c-1.92 0-3.565.674-4.935 1.887q-2.056 1.821-2.056 4.854c0 1.887.685 3.64 2.056 4.988q2.055 2.022 4.935 2.022c3.152-.135 5.483-1.348 6.854-3.775M233.3 25.074c1.234-2.022 2.879-3.505 5.072-4.718 2.193-1.079 4.661-1.753 7.402-1.753s5.208.54 7.401 1.753c2.057 1.078 3.702 2.696 4.936 4.718 1.096 2.022 1.781 4.18 1.781 6.74 0 2.562-.548 4.72-1.781 6.741-1.097 2.023-2.741 3.64-4.936 4.719-2.055 1.078-4.66 1.752-7.401 1.752q-4.112 0-7.402-1.617c-2.193-1.079-3.838-2.562-5.072-4.584s-1.782-4.314-1.782-7.145c0-2.292.548-4.584 1.782-6.606m7.95 11.729c1.097 1.348 2.605 1.887 4.387 1.887s3.29-.674 4.386-1.887 1.645-2.966 1.645-4.853q0-3.034-1.645-4.854c-1.096-1.213-2.604-1.887-4.386-1.887s-3.153.674-4.387 1.887-1.781 2.966-1.781 4.854c.136 1.887.685 3.505 1.781 4.853M287.994 20.757c1.644 1.348 2.329 3.1 2.467 5.258v18.47h-8.088V28.98q-.205-3.64-3.701-3.64c-1.781 0-3.29.809-4.386 2.561q-1.645 2.63-1.645 6.471v10.111h-7.951V19.948h7.265l.549 3.91c.96-1.618 2.193-2.831 3.838-3.775s3.564-1.348 5.757-1.348c2.331 0 4.386.674 5.895 2.022"/><path fill="#8247E5" d="M56.063 19.546c-1.37-.81-3.152-.81-4.66 0L40.71 25.747l-7.265 4.044-10.692 6.202c-1.37.809-3.152.809-4.66 0l-8.499-4.854c-1.37-.808-2.33-2.291-2.33-3.91v-9.57c0-1.619.822-3.102 2.33-3.91l8.362-4.719c1.37-.809 3.152-.809 4.66 0l8.362 4.719c1.37.808 2.33 2.291 2.33 3.91v6.2l7.265-4.179V13.48c0-1.618-.822-3.1-2.33-3.91L22.754.672c-1.37-.81-3.152-.81-4.66 0L2.33 9.569C.822 10.38 0 11.861 0 13.48v17.93c0 1.618.822 3.1 2.33 3.91l15.764 8.897c1.37.81 3.153.81 4.66 0l10.692-6.066 7.265-4.18 10.692-6.066c1.37-.809 3.153-.809 4.66 0l8.362 4.718c1.37.81 2.33 2.292 2.33 3.91v9.572c0 1.617-.822 3.1-2.33 3.91l-8.362 4.852c-1.37.81-3.152.81-4.66 0l-8.362-4.718c-1.37-.809-2.33-2.292-2.33-3.91v-6.2l-7.265 4.178v6.202c0 1.617.823 3.1 2.33 3.91l15.764 8.897c1.37.809 3.153.809 4.66 0l15.764-8.898c1.37-.809 2.33-2.292 2.33-3.91v-17.93c0-1.617-.822-3.1-2.33-3.909z"/></svg>