<svg xmlns="http://www.w3.org/2000/svg" width="290" height="69" fill="none"><path fill="#F5F9FC" d="m104.663 19.681-1.864 1.865h-1.865l-.58-2.362c-.124-.58-.663-.953-1.284-.953H87.137c-.746 0-1.326.58-1.326 1.243v4.102c0 .705.58 1.243 1.326 1.243h7.044v19.226h-8.204c-.746 0-1.326.58-1.326 1.243v4.102c0 .704.58 1.243 1.326 1.243h25.813c.746 0 1.326-.58 1.326-1.243v-4.102c0-.704-.58-1.243-1.326-1.243h-9.488v-13.59c0-3.813 2.237-5.801 6.629-5.801h7.127c.746 0 1.326-.58 1.326-1.244v-4.516c0-.704-.58-1.243-1.326-1.243h-4.226c-3.108-.041-5.553.539-7.169 2.03M136.858 17.61c-10.441 0-16.035 5.552-16.035 16.822 0 11.312 5.552 16.864 15.828 16.864 7.955 0 13.093-3.315 14.461-8.991.207-.788-.456-1.533-1.285-1.533h-4.972c-.539 0-1.036.331-1.243.828-.87 2.445-3.356 3.605-6.712 3.605-5.221 0-7.707-2.859-8.039-9.53h22.665c1.243-12.472-3.936-18.065-14.668-18.065m-7.748 13.01c.787-4.89 3.232-7.168 7.707-7.168 4.765 0 7.002 2.527 7.126 7.168zM177.174 17.61c-2.818 0-4.848.621-6.422 2.113l-1.948 1.864h-1.782l-.662-2.403a1.34 1.34 0 0 0-1.285-.953h-3.729c-.746 0-1.326.58-1.326 1.243v42.43c0 .703.58 1.242 1.326 1.242h5.469c.746 0 1.326-.58 1.326-1.243v-9.198l-.704-4.931 1.823-.414 1.947 1.864c1.533 1.409 3.398 2.113 6.174 2.113 8.038 0 12.886-5.552 12.886-16.864-.041-11.311-4.848-16.863-13.093-16.863m-2.693 26.932c-4.102 0-6.381-2.113-6.381-6.132v-7.956c0-4.019 2.237-6.132 6.381-6.132 5.013 0 7.292 3.15 7.292 10.069-.041 7.002-2.279 10.151-7.292 10.151M290 23.576v-4.102c0-.704-.58-1.243-1.326-1.243h-14.378v-7.955c0-.705-.58-1.243-1.326-1.243h-5.469c-.746 0-1.326.58-1.326 1.243v7.955h-8.494c-.746 0-1.326.58-1.326 1.243v4.102c0 .705.58 1.243 1.326 1.243h8.494v12.182c0 9.323 4.392 13.632 13.839 13.632h7.707c.746 0 1.326-.58 1.326-1.243v-4.102c0-.704-.58-1.243-1.326-1.243h-6.464c-5.138 0-6.961-2.03-6.961-7.085v-12.1h14.378c.746-.04 1.326-.62 1.326-1.284M222.172 44.045h-8.453V6.96c0-.704-.58-1.243-1.326-1.243h-16.574c-.745 0-1.326.58-1.326 1.243v4.102c0 .704.581 1.243 1.326 1.243h9.779v31.739h-10.98c-.746 0-1.326.58-1.326 1.243v4.102c0 .704.58 1.243 1.326 1.243h27.554c.746 0 1.326-.58 1.326-1.243v-4.102c0-.704-.58-1.243-1.326-1.243M246.784 5.718h-7.458c-.746 0-1.326.58-1.326 1.243v5.262c0 .705.58 1.243 1.326 1.243h7.458c.746 0 1.326-.58 1.326-1.243V6.961a1.32 1.32 0 0 0-1.326-1.243M247.778 44.045v-24.57c0-.705-.58-1.244-1.326-1.244h-16.698c-.746 0-1.326.58-1.326 1.243v4.102c0 .705.58 1.243 1.326 1.243h9.903v19.226h-9.903c-.746 0-1.326.58-1.326 1.243v4.102c0 .704.58 1.243 1.326 1.243h28.176c.746 0 1.326-.58 1.326-1.243v-4.102c0-.704-.58-1.243-1.326-1.243z"/><path fill="#F5640C" d="M28.714 22.955H4.31A4.306 4.306 0 0 1 0 18.645V4.31A4.306 4.306 0 0 1 4.31 0h20.095a4.306 4.306 0 0 1 4.31 4.31z"/><path fill="#F5640C" d="M53.119 45.91H28.714V22.912H53.12c2.362 0 4.31 1.948 4.31 4.31V41.6a4.306 4.306 0 0 1-4.31 4.31M24.405 68.906H4.309C1.947 68.906 0 66.958 0 64.596V50.22c0-2.362 1.947-4.31 4.31-4.31h24.404v18.687c0 2.362-1.947 4.31-4.31 4.31"/></svg>