<svg xmlns="http://www.w3.org/2000/svg" width="291" height="44" fill="none"><g clip-path="url(#a)"><path fill="url(#b)" d="m48.889 34.096-7.982 8.558a1.85 1.85 0 0 1-1.352.59H1.716a.927.927 0 0 1-.68-1.558l7.973-8.559a1.85 1.85 0 0 1 1.352-.59H48.2a.924.924 0 0 1 .689 1.559m-7.982-17.24a1.87 1.87 0 0 0-1.352-.59H1.716a.928.928 0 0 0-.68 1.559l7.973 8.563a1.87 1.87 0 0 0 1.352.59H48.2a.93.93 0 0 0 .675-1.558zm-39.19-6.149h37.838a1.85 1.85 0 0 0 1.352-.59l7.982-8.558A.924.924 0 0 0 48.199 0H10.362a1.85 1.85 0 0 0-1.352.59L1.036 9.15a.928.928 0 0 0 .68 1.559"/><path fill="#9945FF" d="M95.02 18.289H74.778v-6.667h25.505V4.955H74.709a6.65 6.65 0 0 0-6.689 6.618v6.756a6.653 6.653 0 0 0 6.69 6.627h20.27v6.667H68.502v6.667h26.519a6.65 6.65 0 0 0 6.689-6.618v-6.757a6.65 6.65 0 0 0-4.138-6.132 6.7 6.7 0 0 0-2.551-.494M134.239 4.955h-20.321a6.65 6.65 0 0 0-6.707 6.617v20.1c.004.875.182 1.741.522 2.548a6.64 6.64 0 0 0 3.631 3.582 6.7 6.7 0 0 0 2.554.487h20.321a6.654 6.654 0 0 0 6.689-6.617v-20.1a6.66 6.66 0 0 0-4.141-6.125 6.7 6.7 0 0 0-2.548-.492m-.05 26.668h-20.221V11.622h20.212zM205.412 4.955h-19.821a6.65 6.65 0 0 0-6.689 6.618v26.716h6.757V27.34h19.73v10.95h6.757V11.572a6.65 6.65 0 0 0-6.734-6.617m-.05 15.717h-19.73v-9.05h19.73zM284.311 4.955H264.49a6.654 6.654 0 0 0-6.689 6.618V38.29h6.757V27.339h19.685v10.95H291V11.573a6.653 6.653 0 0 0-6.689-6.617m-.068 15.717h-19.73v-9.05h19.73zM245.053 31.623h-2.703l-9.663-23.875a4.45 4.45 0 0 0-4.126-2.793h-5.995a4.436 4.436 0 0 0-4.46 4.415v28.92h6.757V11.621h2.703l9.658 23.875a4.465 4.465 0 0 0 4.144 2.775h5.996a4.43 4.43 0 0 0 3.144-1.284 4.44 4.44 0 0 0 1.315-3.131V4.955h-6.77zM153.653 4.955h-6.757v26.717a6.66 6.66 0 0 0 4.156 6.131 6.7 6.7 0 0 0 2.556.486h20.271v-6.666h-20.226z"/></g><defs><linearGradient id="b" x1="4.87" x2="44.546" y1="44.276" y2="-.455" gradientUnits="userSpaceOnUse"><stop offset=".08" stop-color="#9945FF"/><stop offset=".3" stop-color="#8752F3"/><stop offset=".5" stop-color="#5497D5"/><stop offset=".6" stop-color="#43B4CA"/><stop offset=".72" stop-color="#28E0B9"/><stop offset=".97" stop-color="#19FB9B"/></linearGradient><clipPath id="a"><path fill="#fff" d="M0 0h291v43.245H0z"/></clipPath></defs></svg>